<svg id="Layer_1" data-name="Layer 1" xmlns="http://www.w3.org/2000/svg" width="16.08cm" height="12.12cm" viewBox="0 0 455.89 343.51"><defs><style>.cls-1{fill:#007ac2;}.cls-2{fill:#c8dbf2;}.cls-3{fill:#88b8e3;}.cls-4{fill:#fff;}</style></defs><title>Objeto inteligente vectorial</title><path class="cls-1" d="M600.65,392.91l4-18.6-6.48-1.38-1.19,5.56-33.39-4.29,1.18-5.57-6.42-1.35-2.94,13.83,24.94,17.34,0.8,0.5-1,.14-29.82,5.7-2.93,13.83,6.42,1.37,1.18-5.55,32.25,9.65-1.17,5.57,6.48,1.37,4-18.6L590,411.06l-1.12,5.25-24-7,24.72-5.08,1.38-6.55L570.45,383l24.84,3.34-1.11,5.25Z" transform="translate(-192.34 -126.05)"/><path class="cls-1" d="M605.85,337.46l-0.84,4c-0.16.72-.4,0.52-0.69,0.46l-14.13-3c-8.42-1.8-14,1.88-15.77,10.35a21.42,21.42,0,0,0,1.28,13.34l0.32,0.62,6.37-2-0.39-.84a16.52,16.52,0,0,1-1.08-9.2c0.85-4,3.22-5.53,7.21-4.68l0.38,0.08-0.25,1.19c-2.63,12.41,0,20.1,7.33,21.67a12.27,12.27,0,0,0,2.45.26c6.15,0,9.4-5,10.32-9.36a12.22,12.22,0,0,0-2.54-10.5,5.34,5.34,0,0,0,.71.05c1.22,0,3.36-.52,4.1-4l1.51-7.12Zm-3.5,20.21a4.62,4.62,0,0,1-4.59,4,5.48,5.48,0,0,1-1-.1c-4.45-1-4-7.68-2.83-13.16l0.16-.76,0.51,0.11a11.17,11.17,0,0,1,6,3.52A7.29,7.29,0,0,1,602.35,357.67Z" transform="translate(-192.34 -126.05)"/><path class="cls-1" d="M609.27,319.73l-0.1.91s-0.07.69-.28,1.63c-0.42,2-1.45,2.37-4.24,1.78l-35.56-7.55-2.75,12.91,6.3,1.34,1.12-5.25,29.63,6.3a16.75,16.75,0,0,0,3.46.39c4.58,0,7.42-2.5,8.48-7.46,0.3-1.46.45-2.73,0.46-2.78l0.09-.74Z" transform="translate(-192.34 -126.05)"/><path class="cls-1" d="M613.06,301.86l-0.1.91s-0.08.68-.28,1.63c-0.42,2-1.46,2.37-4.24,1.78l-35.55-7.55-2.74,12.91,6.3,1.33,1.11-5.25,29.63,6.3a16.93,16.93,0,0,0,3.46.4c4.58,0,7.43-2.51,8.48-7.46,0.3-1.46.45-2.74,0.46-2.78l0.08-.74Z" transform="translate(-192.34 -126.05)"/><path class="cls-1" d="M622.53,269.38a17.47,17.47,0,0,0-11.38-7.9,18.76,18.76,0,0,0-3.81-.4c-8.36,0-15.46,6-17.28,14.59a18.59,18.59,0,0,0,2.2,13.66,17.32,17.32,0,0,0,11.3,7.88,19,19,0,0,0,3.85.4c8.41,0,15.55-6,17.37-14.57A18.46,18.46,0,0,0,622.53,269.38Zm-4.61,12.21a10.12,10.12,0,0,1-10.17,8.1,12.19,12.19,0,0,1-2.54-.27c-5.95-1.26-9.52-6.54-8.31-12.29A10.24,10.24,0,0,1,607,269a11.32,11.32,0,0,1,2.46.26C615.42,270.53,619.12,275.94,617.92,281.59Z" transform="translate(-192.34 -126.05)"/><path class="cls-1" d="M626,242.8l-1,4.69-7.57-1.6a16.6,16.6,0,0,1-7.94-3.94,7.68,7.68,0,0,1-2.38-7.47,8,8,0,0,1,.49-1.52l0.45-1-7.69-1.62-0.26.65a12.36,12.36,0,0,0-.49,1.66A11.16,11.16,0,0,0,603,243l-0.51-.11c-3-.64-4.84.69-5.52,3.91l-1.68,7.92,6.29,1.34,1-4.74c0.15-.72.39-0.51,0.7-0.45l20.07,4.26-1,4.75,6.29,1.34,3.63-17.1Z" transform="translate(-192.34 -126.05)"/><path class="cls-1" d="M636.3,203.72l-0.32-.55L629.51,205l0.58,1.19a15.43,15.43,0,0,1,1.69,10.16c-1.27,6-6.55,9.39-12.76,8.07s-9.6-6.22-8.34-12.16c0.58-2.73,2.44-5.77,4.1-5.41l3,0.64,1.49-7-4.68-1a5.85,5.85,0,0,0-1.3-.14c-5.55,0-8.63,7.6-9.49,11.63a18,18,0,0,0,2.26,13.51,17.71,17.71,0,0,0,11.44,7.74,19.51,19.51,0,0,0,4,.43c8.37,0,15.23-5.88,17.09-14.62A20.49,20.49,0,0,0,636.3,203.72Z" transform="translate(-192.34 -126.05)"/><path class="cls-1" d="M641.93,167.59l-0.84,4c-0.17.74-.41,0.52-0.7,0.46l-14.13-3c-8.42-1.79-14,1.89-15.77,10.36a21.36,21.36,0,0,0,1.28,13.34l0.32,0.62,6.37-2-0.4-.85A16.46,16.46,0,0,1,617,181.3c0.85-4,3.21-5.55,7.2-4.69l0.38,0.08-0.25,1.2a35.36,35.36,0,0,0-.8,11.81c0.74,5.48,3.55,8.89,8.14,9.86a12,12,0,0,0,2.45.26c6.15,0,9.4-5,10.32-9.36A12.23,12.23,0,0,0,641.9,180a5.42,5.42,0,0,0,.73.05c1.21,0,3.37-.51,4.09-4l1.51-7.12Zm-3.51,20.21a4.63,4.63,0,0,1-4.58,4,4.86,4.86,0,0,1-1-.11,3.75,3.75,0,0,1-2.49-1.7c-1-1.48-1.79-4.66-.35-11.45l0.16-.76,0.51,0.1a10.94,10.94,0,0,1,6.7,4.51A7.06,7.06,0,0,1,638.43,187.81Z" transform="translate(-192.34 -126.05)"/><polygon class="cls-2" points="0 13.25 392.89 0 245.9 97.95 49.14 97.34 0 13.25"/><polygon class="cls-3" points="316.74 343.18 392.89 0 245.9 97.95 245.83 293.97 316.74 343.18"/><polygon class="cls-2" points="0.08 343.51 49.14 294.31 245.83 293.97 316.74 343.18 0.08 343.51"/><polygon class="cls-3" points="0.08 343.51 49.14 294.31 49.14 97.34 0 13.25 0.08 343.51"/><path class="cls-1" d="M241.49,223.39v197L438.17,420l0.07-196Zm100.67,50.13-2.93,17.67-16.57.77-1-16.8ZM303.41,371a28.33,28.33,0,0,1-3.79.19H299c-10.62,0-28.46-3.36-28.73-25.89l-0.36-29.37-10.32.13-0.17-14.2,10.86-.14L270,283.29l17.91-.21,0.22,18.41,15.36-.19,0.18,14.2-15.36.19,0.34,27.65c0.12,10,6.9,12.15,12.56,12.15h0.27c0.51,0,1-.05,1.37-0.09a8.06,8.06,0,0,1,.88-0.06l1.61,0,0.19,15.27Zm10.69-.65-0.18-14.2,9.8-.13-0.49-40.75-10.46.13-0.17-14.2,28.89-.36,0.67,55,9.66-.13L352,369.88Zm105.83-10.45c-5.16,5-15.7,10.88-28.37,11H391c-18.62,0-37.63-12.22-37.91-35.57a35.87,35.87,0,0,1,10.26-26,37.41,37.41,0,0,1,26.38-10.75h0.58c13.44,0,28,5.2,28.11,16.62l0.12,10.08-16.19.2-0.07-5.31c0-3.72-5.84-5.67-11.55-5.67h-0.29c-11.57.14-19,8.08-18.81,20.21,0.18,14.09,10.33,20.39,20.31,20.39h0.32c8.54-.1,15.83-4.56,20.45-8.29l0.78-.62,6.84,13.27Z" transform="translate(-192.34 -126.05)"/><path class="cls-4" d="M259.51,316l10.32-.13,0.36,29.38c0.27,22.53,18.12,25.89,28.73,25.89h0.66a28.35,28.35,0,0,0,3.79-.19l2.12-.41-0.19-15.27-1.61,0a8.07,8.07,0,0,0-.88.06c-0.4,0-.86.08-1.37,0.09h-0.27c-5.67,0-12.44-2.11-12.56-12.15l-0.34-27.65,15.36-.19-0.18-14.2-15.36.19-0.22-18.41L270,283.3l0.22,18.41-10.86.14Z" transform="translate(-192.34 -126.05)"/><polygon class="cls-4" points="120.4 189.34 130.86 189.21 131.35 229.96 121.55 230.09 121.72 244.29 159.63 243.83 159.45 229.62 149.79 229.75 149.12 174.78 120.23 175.14 120.4 189.34"/><polygon class="cls-4" points="149.78 147.48 129.25 149.12 130.28 165.92 146.85 165.15 149.78 147.48"/><path class="cls-4" d="M390.45,314.52h0.29c5.7,0,11.5,1.94,11.55,5.67l0.07,5.31,16.19-.2-0.12-10.08c-0.14-11.41-14.67-16.62-28.11-16.62h-0.58a37.41,37.41,0,0,0-26.38,10.75,35.87,35.87,0,0,0-10.26,26c0.28,23.35,19.28,35.57,37.91,35.57h0.54c12.67-.15,23.2-6,28.37-11l0.44-.41-6.84-13.27-0.78.62c-4.62,3.72-11.92,8.19-20.45,8.29h-0.32c-10,0-20.13-6.29-20.31-20.39C371.5,322.59,378.88,314.65,390.45,314.52Z" transform="translate(-192.34 -126.05)"/></svg>