<svg xmlns="http://www.w3.org/2000/svg" viewBox="0 0 313 344.82"><defs><style>.bf30d460-28c3-4ffd-9c07-070d425116aa{fill:#76b1e0;}.bd900ddc-b191-4323-95b8-e206bb94fc54{fill:#0b75bb;}.a7231c18-cc22-4836-b6ce-72a19fa71741{fill:#fff;}</style></defs><title>elteuajuntament</title><g id="a7ff5f3f-eea9-403f-bd64-4ebadc1e443a" data-name="Capa 1"><circle class="bf30d460-28c3-4ffd-9c07-070d425116aa" cx="156.5" cy="156.5" r="156.5"/><rect class="bf30d460-28c3-4ffd-9c07-070d425116aa" x="152.93" y="139.55" width="159.16" height="173.41"/><path class="bf30d460-28c3-4ffd-9c07-070d425116aa" d="M132.44,567.21H135v-16h-2.55V549h14.82v4.75h-2.52v-2.38h-6.85V558h7.26v2.38h-7.26v6.75h7.34v-2.46h2.53v4.84H132.44Z" transform="translate(-128 -225)"/><path class="bf30d460-28c3-4ffd-9c07-070d425116aa" d="M150.8,567.21h2.55V551.37H150.8V549h8v2.37h-2.58v15.72h7.14v-3.3h2.55v5.68H150.8Z" transform="translate(-128 -225)"/><path class="bd900ddc-b191-4323-95b8-e206bb94fc54" d="M171.16,567.21h2.58V551.37h-4.82v3.19H166.4V549H184v5.56h-2.53v-3.19h-4.81v15.84h2.58v2.26h-8.06Z" transform="translate(-128 -225)"/><path class="bd900ddc-b191-4323-95b8-e206bb94fc54" d="M186.35,567.21h2.55v-16h-2.55V549h14.82v4.75h-2.52v-2.38H191.8V558h7.26v2.38H191.8v6.75h7.34v-2.46h2.53v4.84H186.35Z" transform="translate(-128 -225)"/><path class="bd900ddc-b191-4323-95b8-e206bb94fc54" d="M206.62,551.23H204V549h8.06v2.23h-2.58v10.59a6.29,6.29,0,0,0,.79,3.33,5,5,0,0,0,4.4,2.09,4.91,4.91,0,0,0,4.41-2.15,6.47,6.47,0,0,0,.79-3.3V551.23h-2.58V549h8v2.23h-2.55v10.61a8.7,8.7,0,0,1-1.42,5,8,8,0,0,1-6.68,3,8.15,8.15,0,0,1-6.73-3,8.32,8.32,0,0,1-1.36-5Z" transform="translate(-128 -225)"/><path class="bf30d460-28c3-4ffd-9c07-070d425116aa" d="M225.62,567.21h2L234.12,549h3.27l6.53,18.21h2v2.26h-7.1v-2.26H241l-1.59-4.55h-7.26l-1.59,4.55h2.2v2.26h-7.1Zm13-6.87-2.49-7.11a7.17,7.17,0,0,1-.35-1.57h-.09a10.14,10.14,0,0,1-.35,1.57l-2.52,7.11Z" transform="translate(-128 -225)"/><path class="bf30d460-28c3-4ffd-9c07-070d425116aa" d="M246.9,562.57h2.81v.9c0,2,.9,3.77,3.17,3.77,1.62,0,3.1-1,3.1-3.77V551.23h-3V549h8.15v2.23h-2.29v12.41c0,4.38-3.07,6.18-6,6.18s-5.95-1.68-5.95-6.06Z" transform="translate(-128 -225)"/><path class="bf30d460-28c3-4ffd-9c07-070d425116aa" d="M265.78,551.23H263.2V549h8.06v2.23h-2.58v10.59a6.39,6.39,0,0,0,.78,3.33,5,5,0,0,0,4.41,2.09,4.91,4.91,0,0,0,4.41-2.15,6.47,6.47,0,0,0,.79-3.3V551.23h-2.59V549h8v2.23H282v10.61a8.7,8.7,0,0,1-1.43,5,7.92,7.92,0,0,1-6.67,3,8.15,8.15,0,0,1-6.73-3,8.32,8.32,0,0,1-1.36-5Z" transform="translate(-128 -225)"/><path class="bf30d460-28c3-4ffd-9c07-070d425116aa" d="M287,567.21h2.55v-16H287V549h5.43l10.06,14.67a11.83,11.83,0,0,1,.7,1.48h.08a15.5,15.5,0,0,1-.14-1.65V551.23h-2.61V549h8.09v2.23H306v18.24h-2.84L293.07,554.8a8.08,8.08,0,0,1-.69-1.48h-.09a11.54,11.54,0,0,1,.11,1.65v12.24H295v2.26H287Z" transform="translate(-128 -225)"/><path class="bf30d460-28c3-4ffd-9c07-070d425116aa" d="M315.31,567.21h2.58V551.37h-4.81v3.19h-2.52V549h17.57v5.56h-2.52v-3.19H320.8v15.84h2.58v2.26h-8.07Z" transform="translate(-128 -225)"/><path class="bf30d460-28c3-4ffd-9c07-070d425116aa" d="M327.84,567.21h2L336.34,549h3.28l6.52,18.21h2v2.26H341v-2.26h2.18l-1.6-4.55h-7.25l-1.6,4.55H335v2.26h-7.11Zm13-6.87-2.49-7.11a7.17,7.17,0,0,1-.35-1.57h-.09a9.41,9.41,0,0,1-.34,1.57l-2.53,7.11Z" transform="translate(-128 -225)"/><path class="bf30d460-28c3-4ffd-9c07-070d425116aa" d="M349.53,567.21h2.56l1.3-16h-2.61V549h5.8l5.25,12.47a12.88,12.88,0,0,1,.47,1.48h.05a12.88,12.88,0,0,1,.47-1.48L368.07,549h5.8v2.23h-2.61l1.3,16h2.56v2.26h-7.89v-2.26h2.46L368.76,555a16,16,0,0,1,.09-1.68h-.09a14.32,14.32,0,0,1-.46,1.56l-4.7,10.77h-2.55l-4.7-10.77a14.32,14.32,0,0,1-.46-1.56h-.09a16,16,0,0,1,.09,1.68L355,567.21h2.46v2.26h-7.89Z" transform="translate(-128 -225)"/><path class="bf30d460-28c3-4ffd-9c07-070d425116aa" d="M377.75,567.21h2.55v-16h-2.55V549h14.82v4.75h-2.52v-2.38H383.2V558h7.26v2.38H383.2v6.75h7.34v-2.46h2.53v4.84H377.75Z" transform="translate(-128 -225)"/><path class="bf30d460-28c3-4ffd-9c07-070d425116aa" d="M396.08,567.21h2.55v-16h-2.55V549h5.42l10.07,14.67a11.16,11.16,0,0,1,.69,1.48h.09a15.5,15.5,0,0,1-.14-1.65V551.23H409.6V549h8.09v2.23h-2.58v18.24h-2.85L402.2,554.8a8.45,8.45,0,0,1-.7-1.48h-.08a11.54,11.54,0,0,1,.11,1.65v12.24h2.64v2.26h-8.09Z" transform="translate(-128 -225)"/><path class="bf30d460-28c3-4ffd-9c07-070d425116aa" d="M424.44,567.21H427V551.37h-4.81v3.19h-2.53V549h17.58v5.56h-2.52v-3.19h-4.82v15.84h2.58v2.26h-8.06Z" transform="translate(-128 -225)"/><path class="a7231c18-cc22-4836-b6ce-72a19fa71741" d="M144.06,404.34h3.27l10.8-30.15h5.42l10.8,30.15h3.27v3.74H165.86v-3.74h3.6l-2.64-7.54h-12l-2.64,7.54h3.65v3.74H144.06ZM165.62,393l-4.13-11.76a11.87,11.87,0,0,1-.58-2.59h-.14a16.89,16.89,0,0,1-.58,2.59L156,393Z" transform="translate(-128 -225)"/><path class="a7231c18-cc22-4836-b6ce-72a19fa71741" d="M177.9,414.13c1.78,0,5.19-.62,5.19-5.47V387.39H179v-3.6h8.73v25c0,8.12-6.29,9.17-9.31,9.17a12.15,12.15,0,0,1-1.58-.09v-3.8A10.06,10.06,0,0,0,177.9,414.13ZM183,374.19h4.9v4.75H183Z" transform="translate(-128 -225)"/><path class="a7231c18-cc22-4836-b6ce-72a19fa71741" d="M196.86,387.39h-4.08v-3.6h8.74v14.6c0,3.36.67,6,4.56,6,4.85,0,7.87-4.65,7.87-9.45v-7.59h-4.08v-3.6h8.74v19.68a1,1,0,0,0,1,1.06h2.55v3.55h-5c-2.11,0-3.07-1-3.07-2.69v-1.05a11.12,11.12,0,0,1,.09-1.44h-.09a10,10,0,0,1-9.27,5.76c-5.23,0-8-2.88-8-9.31Z" transform="translate(-128 -225)"/><path class="a7231c18-cc22-4836-b6ce-72a19fa71741" d="M226.05,404.48h3.79v-16a1,1,0,0,0-1.06-1.06h-3v-3.6h5.47c2.11,0,3.07.91,3.07,2.69v1.25a7,7,0,0,1-.14,1.39h.09a10.21,10.21,0,0,1,9.46-5.9c5.57,0,8.06,3.12,8.06,9.31v12h3.84v3.6h-8.49V393.59c0-3.41-.67-6.1-4.56-6.1-4.9,0-8.12,4.46-8.12,9.31v7.68h3.84v3.6H226.05Z" transform="translate(-128 -225)"/><path class="a7231c18-cc22-4836-b6ce-72a19fa71741" d="M261.42,387.39h-4.08v-3.6h4.18v-6.67h4.56v6.67h5.81v3.6h-5.81v11.38c0,4.94,3.36,5.57,5.18,5.57a10.63,10.63,0,0,0,1.11,0v3.89a14.16,14.16,0,0,1-1.68.09c-3.08,0-9.27-1-9.27-9.07Z" transform="translate(-128 -225)"/><path class="a7231c18-cc22-4836-b6ce-72a19fa71741" d="M289.5,393.15H291v-.91c0-3.84-2.21-5.18-5.19-5.18a12.93,12.93,0,0,0-7,2.35L277,386.1a15.6,15.6,0,0,1,9.22-2.88c6.19,0,9.45,3.21,9.45,9.36v10.85a.94.94,0,0,0,1.06,1.05h2.45v3.6h-4.85c-2.16,0-3-1.05-3-2.64v-.33a6,6,0,0,1,.19-1.59h-.1a8.82,8.82,0,0,1-8,5.14c-4,0-8.07-2.35-8.07-7.35C275.34,393.68,285.47,393.15,289.5,393.15Zm-5.09,11.91c4.13,0,6.68-4.23,6.68-7.87v-1h-1.2c-2.21,0-9.84.09-9.84,4.75A4.1,4.1,0,0,0,284.41,405.06Z" transform="translate(-128 -225)"/><path class="a7231c18-cc22-4836-b6ce-72a19fa71741" d="M302.7,404.48h3.79V388.4a.92.92,0,0,0-1.05-1h-3v-3.6h5.47c2.07,0,3.08.91,3.08,2.69v1.25a6.58,6.58,0,0,1-.15,1.39h.1a10,10,0,0,1,8.64-5.9c3.89,0,6.29,1.77,7.1,5.71h.1a9.77,9.77,0,0,1,8.69-5.71c5.37,0,7.92,3.12,7.92,9.31v12h3.84v3.6h-8.5V393.54c0-3.41-.62-6.1-4.27-6.1-4.56,0-7.15,4.66-7.15,9.46v7.58h3.79v3.6h-8.45V393.54c0-3.17-.48-6.1-4.22-6.1-4.61,0-7.3,4.9-7.3,9.65v7.39H315v3.6H302.7Z" transform="translate(-128 -225)"/><path class="a7231c18-cc22-4836-b6ce-72a19fa71741" d="M362.51,383.22c6.91,0,10.51,5.08,10.51,11.37,0,.63-.14,1.78-.14,1.78H355.12c.29,5.38,4.08,8.26,8.4,8.26a11.84,11.84,0,0,0,7.25-2.74l1.92,3.41a14.89,14.89,0,0,1-9.46,3.36c-7.63,0-12.87-5.52-12.87-12.72C350.36,388.21,355.6,383.22,362.51,383.22Zm5.71,10.17c-.14-4.27-2.73-6.48-5.81-6.48-3.55,0-6.43,2.4-7.1,6.48Z" transform="translate(-128 -225)"/><path class="a7231c18-cc22-4836-b6ce-72a19fa71741" d="M377.34,404.48h3.79v-16a.94.94,0,0,0-1.05-1.06h-3v-3.6h5.47c2.12,0,3.08.91,3.08,2.69v1.25a6.58,6.58,0,0,1-.15,1.39h.1a10.2,10.2,0,0,1,9.45-5.9c5.57,0,8.07,3.12,8.07,9.31v12H407v3.6h-8.5V393.59c0-3.41-.67-6.1-4.56-6.1-4.89,0-8.11,4.46-8.11,9.31v7.68h3.84v3.6H377.34Z" transform="translate(-128 -225)"/><path class="a7231c18-cc22-4836-b6ce-72a19fa71741" d="M412.72,387.39h-4.08v-3.6h4.17v-6.67h4.56v6.67h5.81v3.6h-5.81v11.38c0,4.94,3.36,5.57,5.19,5.57a10.53,10.53,0,0,0,1.1,0v3.89a14,14,0,0,1-1.68.09c-3.07,0-9.26-1-9.26-9.07Z" transform="translate(-128 -225)"/></g><g id="efc8167e-0f8a-4447-82b4-94d84e12a04d" data-name="Capa 2"><path class="a7231c18-cc22-4836-b6ce-72a19fa71741" d="M362.08,371.55a6.12,6.12,0,0,1-.93-1c-1.24-2-2.45-3.93-3.65-5.92a.81.81,0,0,0-.8-.44H340.27c-1.2,0-1.6-.39-1.6-1.58q0-19.67-.08-39.33a3,3,0,0,1,.09-.79,1.22,1.22,0,0,1,2.36.26c0,.23,0,.46,0,.69q0,18.81.07,37.63v.66h.64c5.28,0,10.56,0,15.84,0a1.6,1.6,0,0,1,1.52.85c1,1.74,2.12,3.47,3.24,5.27l.32-.51q1.4-2.44,2.78-4.89a1.22,1.22,0,0,1,1.27-.7,1.06,1.06,0,0,1,1,.83,1.52,1.52,0,0,1-.1,1c-1.35,2.44-2.74,4.87-4.14,7.29a3.45,3.45,0,0,1-.67.65Z" transform="translate(-128 -225)"/><path class="a7231c18-cc22-4836-b6ce-72a19fa71741" d="M383.27,319.56h-37.9a1.18,1.18,0,0,1-1.16-1.2,1.22,1.22,0,0,1,1.13-1.25h38.75c1.29,0,1.69.39,1.69,1.66v43.8c0,1.25-.4,1.65-1.66,1.65H373.55a1.23,1.23,0,1,1,0-2.45h9.72Z" transform="translate(-128 -225)"/><path class="a7231c18-cc22-4836-b6ce-72a19fa71741" d="M362.25,324.43a5,5,0,0,1,4.88,6.36c-1.22,4.51-2.48,9-3.73,13.49-.21.75-.62,1.11-1.24,1.11s-1.05-.37-1.26-1.14c-1.19-4.45-2.4-8.91-3.58-13.36A5,5,0,0,1,362.25,324.43Zm-.13,14.81h.12c.84-3,1.68-6.05,2.5-9.09a2.53,2.53,0,0,0-1-2.8,2.72,2.72,0,0,0-3,0,2.56,2.56,0,0,0-1,2.85c.22.87.46,1.74.69,2.61Z" transform="translate(-128 -225)"/><path class="a7231c18-cc22-4836-b6ce-72a19fa71741" d="M362.23,347.89a5,5,0,1,1-4.94,5A4.95,4.95,0,0,1,362.23,347.89Zm0,2.48a2.47,2.47,0,1,0,2.5,2.48A2.47,2.47,0,0,0,362.22,350.37Z" transform="translate(-128 -225)"/></g></svg>