<?xml version="1.0" encoding="utf-8"?>
<!-- Generator: Adobe Illustrator 19.2.0, SVG Export Plug-In . SVG Version: 6.00 Build 0)  -->
<svg version="1.1" id="Capa_1" xmlns="http://www.w3.org/2000/svg" xmlns:xlink="http://www.w3.org/1999/xlink" x="0px" y="0px"
	 viewBox="0 0 595.3 841.9" style="enable-background:new 0 0 595.3 841.9;" xml:space="preserve">
<style type="text/css">
	.st0{fill:#4C4C4C;}
	.st1{fill:#0075C9;}
	.st2{fill:#C7DAF1;}
	.st3{fill:#86B7E2;}
	.st4{fill:#FFFFFF;}
	.st5{fill:#2A2A29;}
	.st6{fill:#169DE6;}
	.st7{fill:url(#shape_2_1_);}
	.st8{fill:#0072B3;stroke:#0072B3;stroke-width:1.5;stroke-miterlimit:10;}
	.st9{fill:none;}
</style>
<g>
	<g>
		<path class="st0" d="M366.8,150.3L366.8,150.3c-0.2,0-0.4,0-0.6,0c-3-0.2-6-1-9.4-2.7c-6.3-3.1-11.8-7.4-16.3-12.8
			c-3.7-4.4-6.3-8.7-8-13.3c-1.1-3-1.6-5.5-1.4-7.9c0.2-2,1-3.8,2.4-5.1c0.7-0.7,1.4-1.4,2.1-2.1c0.5-0.5,0.9-0.9,1.4-1.4
			c1.1-1.1,2.5-1.7,3.9-1.7s2.7,0.6,3.9,1.7c0.7,0.7,1.3,1.3,1.9,1.9c0.3,0.3,0.6,0.6,1,1c0.9,0.9,1.9,1.9,2.8,2.8
			c2.4,2.4,2.4,5.5,0,7.9c-1,1-2,2-3,3c0.6,1.2,1.4,2.5,2.6,4c2.7,3.3,5.4,5.8,8.4,7.7c0.3,0.2,0.8,0.4,1.2,0.6
			c0.1,0,0.2,0.1,0.3,0.1c1-1,2-2,3-3l0,0c1.1-1.1,2.5-1.7,3.9-1.7s2.7,0.6,3.9,1.7c1,1,1.9,1.9,2.8,2.8c1,1,1.9,1.9,2.9,2.9
			c2.3,2.3,2.3,5.5,0,7.9c-0.4,0.4-0.7,0.7-1.1,1.1c-0.7,0.7-1.4,1.4-2.1,2.1C371.5,149.4,369.4,150.3,366.8,150.3z M340.8,107.1
			c-0.5,0-0.9,0.3-1.2,0.6c-0.4,0.4-0.9,0.9-1.3,1.3c-0.7,0.7-1.5,1.5-2.2,2.2c-0.8,0.7-1.1,1.6-1.2,2.7c-0.1,1.8,0.2,3.8,1.2,6.3
			c1.6,4.2,4,8.2,7.3,12.2c4.2,5,9.3,9,15.1,11.8c3,1.5,5.5,2.2,8,2.3c1.8,0.1,3-0.3,3.9-1.4c0.7-0.8,1.5-1.6,2.3-2.3
			c0.3-0.3,0.7-0.7,1-1c0.8-0.9,0.9-1.6,0-2.5c-1-1-1.9-1.9-2.9-2.9c-1-0.9-1.9-1.9-2.8-2.8c-0.3-0.3-0.7-0.6-1.2-0.6
			s-0.9,0.3-1.2,0.6l0,0c-1.2,1.1-2.3,2.3-3.5,3.5c-0.6,0.6-1.2,0.9-1.9,0.9c-0.4,0-0.9-0.1-1.3-0.4c-0.3-0.2-0.6-0.3-0.9-0.4
			c-0.5-0.2-1-0.5-1.5-0.8c-3.4-2.1-6.4-4.9-9.3-8.5c-1.6-2-2.7-3.7-3.5-5.6l0,0c-0.6-1.5,0.1-2.5,0.6-3c1.2-1.1,2.3-2.3,3.5-3.5
			c0.9-0.9,0.9-1.6,0-2.5s-1.8-1.9-2.8-2.8c-0.3-0.3-0.6-0.6-1-1c-0.6-0.6-1.3-1.3-1.9-1.9C341.8,107.4,341.3,107.1,340.8,107.1z"/>
	</g>
</g>
<path class="st0" d="M278.6,107c0-0.1-0.1-0.1-0.1-0.2c-0.1-0.1-0.1-0.1-0.2-0.1c-4.7-5-11.3-7.9-18.2-7.9c-6.9,0-13.5,2.8-18.2,7.9
	c-0.1,0-0.1,0.1-0.2,0.1c0,0.1-0.1,0.1-0.1,0.2c-8.8,9.6-8.8,24.3,0,33.8c0,0.1,0.1,0.1,0.1,0.2c0.1,0.1,0.1,0.1,0.2,0.1
	c4.7,5,11.3,7.9,18.2,7.9s13.5-2.9,18.2-7.9c0.1,0,0.1-0.1,0.2-0.1c0-0.1,0.1-0.1,0.1-0.2C287.5,131.2,287.5,116.5,278.6,107
	L278.6,107z M277.4,138.4c-1.7-1.3-3.5-2.5-5.5-3.3c0.8-3.2,1.2-6.6,1.3-9.9h9.4C282.4,130,280.6,134.7,277.4,138.4z M237.6,125.1
	h9.4c0.1,3.3,0.5,6.7,1.3,9.9c-2,0.9-3.8,2-5.5,3.3C239.7,134.7,237.9,130,237.6,125.1z M242.8,109.4c1.7,1.3,3.5,2.5,5.5,3.3
	c-0.8,3.2-1.2,6.6-1.3,9.9h-9.4C237.9,117.7,239.7,113.1,242.8,109.4z M258.9,112.6c-2.6-0.1-5.1-0.6-7.5-1.4
	c1.7-5.2,4.4-8.9,7.5-9.7V112.6z M258.9,115.1v7.5h-9.4c0.1-3,0.5-6,1.2-9C253.3,114.5,256.1,115,258.9,115.1L258.9,115.1
	L258.9,115.1z M258.9,125.1v7.5c-2.8,0.1-5.6,0.6-8.2,1.5c-0.7-2.9-1.1-6-1.2-9C249.5,125.1,258.9,125.1,258.9,125.1z M258.9,135.1
	v11.2c-3.1-0.8-5.8-4.5-7.5-9.7C253.8,135.7,256.3,135.2,258.9,135.1z M261.4,135.1c2.6,0.1,5.1,0.6,7.5,1.4
	c-1.7,5.2-4.4,8.9-7.5,9.7V135.1z M261.4,132.6v-7.5h9.4c-0.1,3-0.5,6-1.2,9C267,133.2,264.2,132.7,261.4,132.6L261.4,132.6
	L261.4,132.6z M261.4,122.6v-7.5c2.8-0.1,5.6-0.6,8.2-1.5c0.7,2.9,1.1,6,1.2,9H261.4z M261.4,112.6v-11.2c3.1,0.8,5.8,4.5,7.5,9.7
	C266.5,112,264,112.5,261.4,112.6z M267,102.3c3.3,1,6.2,2.8,8.7,5.2c-1.4,1.1-2.9,2-4.4,2.7C270.4,107.4,268.9,104.7,267,102.3z
	 M249,110.2c-1.6-0.7-3.1-1.7-4.4-2.7c2.5-2.4,5.5-4.1,8.7-5.2C251.4,104.7,249.9,107.4,249,110.2L249,110.2z M249,137.5
	c0.9,2.9,2.3,5.6,4.3,7.9c-3.3-1-6.2-2.8-8.7-5.2C245.9,139.1,247.4,138.2,249,137.5L249,137.5z M271.3,137.5
	c1.6,0.7,3.1,1.7,4.4,2.7c-2.5,2.4-5.5,4.1-8.7,5.2C268.9,143.1,270.4,140.4,271.3,137.5L271.3,137.5z M273.3,122.6
	c-0.1-3.3-0.5-6.7-1.3-9.9c2-0.9,3.8-2,5.5-3.3c3.1,3.7,5,8.4,5.2,13.3L273.3,122.6L273.3,122.6z"/>
<g>
	<g>
		<path class="st1" d="M175,150.1l1.2-5.5l-1.9-0.4l-0.4,1.6l-9.9-1.3l0.4-1.6l-1.9-0.4l-0.9,4.1l7.4,5.1c0.1,0.1,0.2,0.1,0.2,0.1
			c-0.1,0-0.2,0-0.3,0l-8.8,1.7l-0.9,4.1l1.9,0.4l0.4-1.6l9.6,2.9l-0.3,1.6l1.9,0.4l1.2-5.5l-1.9-0.4l-0.3,1.6l-7.1-2.1l7.3-1.5
			l0.4-1.9l-6.1-4.4l7.4,1l-0.3,1.6L175,150.1z"/>
		<path class="st1" d="M176.6,133.7l-0.2,1.2c0,0.2-0.1,0.2-0.2,0.1l-4.2-0.9c-2.5-0.5-4.1,0.6-4.7,3.1c-0.5,2.2,0.3,3.9,0.4,4
			l0.1,0.2l1.9-0.6l-0.1-0.2c0,0-0.6-1.3-0.3-2.7c0.3-1.2,1-1.6,2.1-1.4h0.1l-0.1,0.4c-0.8,3.7,0,6,2.2,6.4c0.2,0.1,0.5,0.1,0.7,0.1
			c1.8,0,2.8-1.5,3.1-2.8c0.3-1.4-0.2-2.5-0.8-3.1c0.1,0,0.1,0,0.2,0c0.4,0,1-0.2,1.2-1.2l0.4-2.1L176.6,133.7z M175.5,139.7
			c-0.2,0.9-0.8,1.2-1.4,1.2c-0.1,0-0.2,0-0.3,0c-1.3-0.3-1.2-2.3-0.8-3.9v-0.2h0.1c0.7,0.1,1.3,0.5,1.8,1
			C175.3,138.2,175.7,138.8,175.5,139.7z"/>
		<path class="st1" d="M177.6,128.4v0.3c0,0,0,0.2-0.1,0.5c-0.1,0.6-0.4,0.7-1.3,0.5l-10.5-2.2l-0.8,3.8l1.9,0.4l0.3-1.6l8.8,1.9
			c0.4,0.1,0.7,0.1,1,0.1c1.4,0,2.2-0.7,2.5-2.2c0.1-0.4,0.1-0.8,0.1-0.8v-0.2L177.6,128.4z"/>
		<path class="st1" d="M178.7,123.1v0.3c0,0,0,0.2-0.1,0.5c-0.1,0.6-0.4,0.7-1.3,0.5l-10.5-2.2L166,126l1.9,0.4l0.3-1.6l8.8,1.9
			c0.4,0.1,0.7,0.1,1,0.1c1.4,0,2.2-0.7,2.5-2.2c0.1-0.4,0.1-0.8,0.1-0.8v-0.2L178.7,123.1z"/>
		<path class="st1" d="M181.5,113.5c-0.7-1.2-1.9-2-3.4-2.3c-0.4-0.1-0.8-0.1-1.1-0.1c-2.5,0-4.6,1.8-5.1,4.3
			c-0.3,1.4-0.1,2.9,0.7,4c0.7,1.2,1.9,2,3.3,2.3c0.4,0.1,0.8,0.1,1.1,0.1c2.5,0,4.6-1.8,5.1-4.3
			C182.5,116.1,182.2,114.7,181.5,113.5z M180.1,117.1c-0.3,1.4-1.5,2.4-3,2.4c-0.2,0-0.5,0-0.8-0.1c-1.8-0.4-2.8-1.9-2.5-3.6
			c0.3-1.4,1.5-2.4,3-2.4c0.2,0,0.5,0,0.7,0.1C179.4,113.8,180.5,115.4,180.1,117.1z"/>
		<path class="st1" d="M182.5,105.6l-0.3,1.4l-2.2-0.5c-0.9-0.2-1.8-0.6-2.4-1.2c-0.6-0.6-0.9-1.4-0.7-2.2c0.1-0.3,0.1-0.5,0.1-0.5
			l0.1-0.3l-2.3-0.5l-0.1,0.2c0,0-0.1,0.2-0.1,0.5c-0.2,1.1,0.2,2.2,1,3.1h-0.2c-0.9-0.2-1.4,0.2-1.6,1.2l-0.5,2.3l1.9,0.4l0.3-1.4
			c0-0.2,0.1-0.2,0.2-0.1l5.9,1.3l-0.3,1.4l1.9,0.4l1.1-5.1L182.5,105.6z"/>
		<path class="st1" d="M185.6,94l-0.1-0.2l-1.9,0.5l0.2,0.4c0.2,0.4,0.8,1.6,0.5,3c-0.4,1.8-1.9,2.8-3.8,2.4
			c-1.9-0.4-2.8-1.8-2.5-3.6c0.2-0.8,0.7-1.7,1.2-1.6l0.9,0.2l0.4-2.1l-1.4-0.3c-0.1,0-0.3,0-0.4,0c-1.6,0-2.6,2.3-2.8,3.4
			c-0.3,1.4-0.1,2.8,0.7,4c0.7,1.2,1.9,2,3.4,2.3c0.4,0.1,0.8,0.1,1.2,0.1c2.5,0,4.5-1.7,5.1-4.3C186.7,96.2,185.9,94.5,185.6,94z"
			/>
		<path class="st1" d="M187.2,83.3l-0.2,1.2c0,0.2-0.1,0.2-0.2,0.1l-4.2-0.9c-2.5-0.5-4.1,0.6-4.7,3.1c-0.5,2.2,0.3,3.9,0.4,4
			l0.1,0.2l1.9-0.6l-0.1-0.3c0,0-0.6-1.3-0.3-2.7c0.3-1.2,1-1.6,2.1-1.4h0.1l-0.1,0.4c-0.3,1.4-0.4,2.5-0.2,3.5
			c0.2,1.6,1.1,2.6,2.4,2.9c0.2,0.1,0.5,0.1,0.7,0.1c1.8,0,2.8-1.5,3.1-2.8c0.3-1.4-0.3-2.5-0.8-3.1c0.1,0,0.1,0,0.2,0
			c0.4,0,1-0.2,1.2-1.2l0.4-2.1L187.2,83.3z M186.2,89.3c-0.2,0.9-0.8,1.2-1.4,1.2c-0.1,0-0.2,0-0.3,0c-0.3-0.1-0.6-0.2-0.7-0.5
			c-0.3-0.4-0.5-1.4-0.1-3.4v-0.2h0.2c0.8,0.2,1.6,0.7,2,1.3C186.2,88.2,186.3,88.8,186.2,89.3z"/>
	</g>
	<polygon class="st2" points="54,74.9 170.4,71 126.9,100 68.6,99.9 	"/>
	<polygon class="st3" points="147.9,172.7 170.4,71 126.9,100 126.9,158.1 	"/>
	<polygon class="st2" points="54,172.8 68.6,158.2 126.9,158.1 147.9,172.7 	"/>
	<polygon class="st3" points="54,172.8 68.6,158.2 68.6,99.9 54,74.9 	"/>
	<path class="st1" d="M68.6,99.9v58.4l58.3-0.1v-58.1L68.6,99.9z M98.4,114.7l-0.9,5.2l-4.9,0.2l-0.3-5L98.4,114.7z M86.9,143.6
		c-0.3,0-0.6,0.1-1.1,0.1h-0.2c-3.1,0-8.4-1-8.5-7.7l-0.1-8.7h-3.1l-0.1-4.2H77l-0.1-5.5l5.3-0.1l0.1,5.5H87l0.1,4.2l-4.6,0.1
		l0.1,8.2c0,3,2,3.6,3.7,3.6h0.1c0.2,0,0.3,0,0.4,0s0.2,0,0.3,0h0.5l0.1,4.5L86.9,143.6L86.9,143.6z M90.1,143.4l-0.1-4.2h2.9
		l-0.1-12.1h-3.1v-4.2l8.6-0.1l0.2,16.3h2.9l0.1,4.2L90.1,143.4z M121.5,140.3c-1.5,1.5-4.7,3.2-8.4,3.3h-0.2
		c-5.5,0-11.2-3.6-11.2-10.5c0-3,1-5.7,3-7.7s4.8-3.2,7.8-3.2h0.2c4,0,8.3,1.5,8.3,4.9v3l-4.8,0.1v-1.6c0-1.1-1.7-1.7-3.4-1.7h-0.1
		c-3.4,0-5.6,2.4-5.6,6c0.1,4.2,3.1,6,6,6h0.1c2.5,0,4.7-1.4,6.1-2.5l0.2-0.2l2,3.9V140.3z"/>
	<g>
		<path class="st4" d="M73.9,127.3H77l0.1,8.7c0.1,6.7,5.4,7.7,8.5,7.7h0.2c0.5,0,0.8,0,1.1-0.1l0.6-0.1l-0.1-4.5h-0.5
			c-0.1,0-0.2,0-0.3,0c-0.1,0-0.3,0-0.4,0h-0.1c-1.7,0-3.7-0.6-3.7-3.6l-0.1-8.2l4.6-0.1L87,123l-4.6,0.1l-0.1-5.5l-5.3,0.1l0.1,5.5
			h-3.2V127.3z"/>
		<polygon class="st4" points="89.7,127.1 92.8,127.1 92.9,139.2 90,139.2 90.1,143.4 101.3,143.3 101.3,139.1 98.4,139.1 
			98.2,122.8 89.7,122.9 		"/>
		<polygon class="st4" points="98.4,114.7 92.3,115.2 92.6,120.2 97.5,120 		"/>
		<path class="st4" d="M112.7,126.9L112.7,126.9c1.8,0,3.5,0.6,3.5,1.7v1.6l4.8-0.1v-3c0-3.4-4.3-4.9-8.3-4.9h-0.2
			c-3,0-5.8,1.2-7.8,3.2s-3.1,4.7-3,7.7c0.1,6.9,5.7,10.5,11.2,10.5h0.2c3.8,0,6.9-1.8,8.4-3.3l0.1-0.1l-2-3.9l-0.2,0.2
			c-1.4,1.1-3.5,2.4-6.1,2.5h-0.1c-3,0-6-1.9-6-6C107.1,129.3,109.3,126.9,112.7,126.9z"/>
	</g>
</g>
<g>
	<g>
		<path class="st4" d="M159.1,243.6h3.8v15.1c0,0.9,0.7,1.6,1.6,1.6h11c0.9,0,1.6-0.7,1.6-1.6v-11h6.7v11c0,0.9,0.7,1.6,1.6,1.6H196
			c0.9,0,1.6-0.7,1.6-1.6v-15.1h4.6c0.6,0,1.2-0.4,1.5-1c0.2-0.6,0.1-1.3-0.3-1.7l-21-21.3c-0.6-0.6-1.6-0.6-2.3,0l-22,21.3
			c-0.5,0.5-0.6,1.2-0.4,1.8C157.9,243.2,158.5,243.6,159.1,243.6L159.1,243.6z M181.1,222.9l17.2,17.4H196c-0.9,0-1.6,0.7-1.6,1.6
			V257h-7.3v-11c0-0.9-0.7-1.6-1.6-1.6h-9.9c-0.9,0-1.6,0.7-1.6,1.6v11h-7.8v-15c0-0.9-0.7-1.6-1.6-1.6h-1.4L181.1,222.9z"/>
	</g>
</g>
<path class="st4" d="M59.8,229.2h10.5v-10.5H59.8V229.2z M75.5,260.6H86v-10.5H75.5V260.6z M59.8,260.6h10.5v-10.5H59.8V260.6z
	 M59.8,244.9h10.5v-10.5H59.8V244.9z M75.5,244.9H86v-10.5H75.5V244.9z M91.2,218.7v10.5h10.5v-10.5H91.2z M75.5,229.2H86v-10.5
	H75.5V229.2z M91.2,244.9h10.5v-10.5H91.2V244.9z M91.2,260.6h10.5v-10.5H91.2V260.6z"/>
<g>
	<path class="st4" d="M541.9,91.7c-8.5,0-15.4,6.9-15.4,15.4c0,2.2,0.5,4.3,1.3,6.3c3.8,8.4,11.2,17.3,13.4,19.8
		c0.2,0.2,0.4,0.3,0.6,0.3c0.3,0,0.5-0.1,0.6-0.3c2.2-2.5,9.5-11.4,13.4-19.8c0.9-2,1.3-4.1,1.3-6.3
		C557.3,98.6,550.4,91.7,541.9,91.7L541.9,91.7z M541.9,115.1c-4.4,0-8-3.6-8-8s3.6-8,8-8s8,3.6,8,8S546.3,115.1,541.9,115.1
		L541.9,115.1z"/>
</g>
<g>
	<g>
		<path class="st4" d="M464.1,112.6h-26.3c-0.8,0-1.5-0.7-1.5-1.5s0.7-1.5,1.5-1.5h26.3c0.8,0,1.5,0.7,1.5,1.5
			S464.9,112.6,464.1,112.6z"/>
	</g>
	<g>
		<path class="st4" d="M464.1,103.3h-26.3c-0.8,0-1.5-0.7-1.5-1.5s0.7-1.5,1.5-1.5h26.3c0.8,0,1.5,0.7,1.5,1.5
			S464.9,103.3,464.1,103.3z"/>
	</g>
	<g>
		<path class="st4" d="M453.3,121.8h-15.5c-0.8,0-1.5-0.7-1.5-1.5s0.7-1.5,1.5-1.5h15.5c0.8,0,1.5,0.7,1.5,1.5
			S454.1,121.8,453.3,121.8z"/>
	</g>
</g>
<path class="st4" d="M395.6,227.7c-10,0-18.2,8.1-18.2,18.2s8.1,18.2,18.2,18.2c10,0,18.2-8.1,18.2-18.2
	C413.8,235.9,405.7,227.7,395.6,227.7z M402.7,247.7h-5.4v5.3h-3.6v-5.3h-5.3v-3.6h5.3v-5.3h3.6v5.3h5.4V247.7z"/>
<g>
	<circle class="st5" cx="297.1" cy="245.9" r="38.1"/>
	<g>
		<path class="st4" d="M297.1,241.3c-3.8,0-6.9,3.1-6.9,6.9c0,3.8,3.1,6.9,6.9,6.9s6.9-3.1,6.9-6.9
			C304,244.4,300.9,241.3,297.1,241.3L297.1,241.3z M315.5,234.4H310c-0.8,0-1.6-0.6-1.8-1.3l-1.4-4.3c-0.2-0.7-1.1-1.3-1.8-1.3
			h-15.6c-0.8,0-1.6,0.6-1.8,1.3l-1.4,4.3c-0.2,0.7-1.1,1.3-1.8,1.3h-5.5c-2.5,0-4.6,2.1-4.6,4.6v20.7c0,2.5,2.1,4.6,4.6,4.6h36.8
			c2.5,0,4.6-2.1,4.6-4.6V239C320.1,236.5,318,234.4,315.5,234.4L315.5,234.4z M297.1,259.7c-6.4,0-11.5-5.1-11.5-11.5
			s5.1-11.5,11.5-11.5s11.5,5.2,11.5,11.5C308.6,254.6,303.4,259.7,297.1,259.7L297.1,259.7z M313.9,242.2c-0.9,0-1.6-0.7-1.6-1.6
			c0-0.9,0.7-1.6,1.6-1.6s1.6,0.7,1.6,1.6S314.7,242.2,313.9,242.2L313.9,242.2z"/>
	</g>
</g>
<g>
	<g>
		<path class="st4" d="M464.9,225.1c0.6-0.6,1.6-0.6,2.2,0s0.6,1.6,0,2.1l-10.9,10.9h36.1c0.8,0,1.5,0.7,1.5,1.5s-0.7,1.5-1.5,1.5
			h-36.1l10.9,10.9c0.6,0.6,0.6,1.6,0,2.2c-0.6,0.6-1.6,0.6-2.2,0l-13.5-13.5c-0.6-0.6-0.6-1.6,0-2.1L464.9,225.1z"/>
	</g>
</g>
<circle class="st0" cx="70" cy="351.8" r="22.7"/>
<circle class="st0" cx="152.7" cy="351.8" r="22.7"/>
<circle class="st0" cx="233.3" cy="351.8" r="22.7"/>
<circle class="st0" cx="315.8" cy="351.8" r="22.7"/>
<g>
	<path class="st0" d="M411,317.8c-16.6,0-30,13.4-30,30s13.4,30,30,30s30-13.4,30-30C441,331.3,427.6,317.8,411,317.8L411,317.8z
		 M407.7,347.8c0,0.6-0.1,1.2-0.3,1.8l8.4,4c1-1.1,2.3-1.7,3.9-1.7c2.9,0,5.3,2.4,5.3,5.3s-2.4,5.3-5.3,5.3s-5.3-2.4-5.3-5.3
		c0-0.3,0-0.6,0.1-0.8l-8.9-4.3c-0.9,0.6-1.9,1-3.1,1c-2.9,0-5.3-2.4-5.3-5.3s2.4-5.3,5.3-5.3c1.2,0,2.2,0.4,3.1,1l8.9-4.3
		c0-0.3-0.1-0.5-0.1-0.8c0-2.9,2.4-5.3,5.3-5.3s5.3,2.4,5.3,5.3s-2.4,5.3-5.3,5.3c-1.5,0-2.9-0.7-3.9-1.7l-8.4,4
		C407.6,346.6,407.7,347.2,407.7,347.8L407.7,347.8z"/>
</g>
<path class="st4" d="M82.7,341.4c-1.1,0.6-2.2,1.1-3.5,1.3c-1-1.1-2.4-1.7-4-1.7c-3,0-5.5,2.4-5.5,5.4c0,0.4,0,0.8,0.1,1.2
	c-4.6-0.2-8.6-2.4-11.4-5.7c-0.5,0.8-0.7,1.7-0.7,2.7c0,1.9,1,3.5,2.5,4.5c-0.9,0-1.8-0.3-2.5-0.7c0,0,0,0,0,0.1
	c0,0.7,0.1,1.4,0.4,2c0.7,1.7,2.2,3,4,3.4c-0.5,0.1-0.9,0.2-1.5,0.2c-0.4,0-0.7,0-1-0.1c0.7,2.2,2.7,3.7,5.1,3.8
	c-1.9,1.5-4.3,2.3-6.8,2.3c-0.4,0-0.9,0-1.3-0.1c2.4,1.5,5.3,2.4,8.4,2.4c8.6,0,13.9-6,15.3-12.2c0.2-1.1,0.4-2.2,0.4-3.3
	c0-0.2,0-0.5,0-0.7c1.1-0.8,2-1.7,2.7-2.8c-1,0.4-2,0.7-3.2,0.9C81.4,343.7,82.2,342.7,82.7,341.4z"/>
<path class="st4" d="M154.7,344.2c0-1,0.7-1.3,1.2-1.3s3,0,3,0v-4.6h-4.1c-4.6,0-5.7,3.4-5.7,5.6v2.4h-2.7v3.2v2.1h2.7
	c0,6.1,0,13.4,0,13.4h5.4c0,0,0-7.4,0-13.4h4l0.2-2.1l0.3-3.3h-4.3L154.7,344.2L154.7,344.2z"/>
<path class="st4" d="M241.5,338.3H225c-2.9,0-5.2,2.3-5.2,5.2v5.5v2v9c0,2.9,2.3,5.2,5.2,5.2h16.5c2.9,0,5.2-2.3,5.2-5.2v-9v-2v-5.5
	C246.7,340.7,244.4,338.3,241.5,338.3z M243,341.4h0.6v0.6v4h-4.5v-4.6H243z M229.2,349.5c0.1-0.2,0.2-0.3,0.3-0.5
	c0.9-1.2,2.3-2,3.8-2c1.6,0,3,0.8,3.8,2c0.1,0.1,0.2,0.3,0.3,0.5c0.4,0.7,0.6,1.5,0.6,2.3c0,2.6-2.1,4.7-4.7,4.7
	c-2.6,0-4.7-2.1-4.7-4.7C228.6,350.9,228.8,350.1,229.2,349.5z M244.1,350.4v9.6c0,1.4-1.2,2.6-2.6,2.6H225c-1.4,0-2.6-1.2-2.6-2.6
	v-9.6V349h4c-0.1,0.2-0.2,0.5-0.3,0.8c-0.2,0.6-0.3,1.3-0.3,2c0,4,3.3,7.3,7.3,7.3s7.3-3.3,7.3-7.3c0-0.7-0.1-1.4-0.3-2
	c-0.1-0.3-0.2-0.5-0.3-0.8h4L244.1,350.4L244.1,350.4z"/>
<g>
	<circle class="st4" cx="337.5" cy="456.9" r="0.7"/>
	<circle class="st4" cx="357.5" cy="456.9" r="0.7"/>
	<circle class="st4" cx="323.4" cy="456.9" r="0.7"/>
	<path class="st4" d="M323.4,453.5c-1.9,0-3.4,1.5-3.4,3.4s1.5,3.4,3.4,3.4s3.4-1.5,3.4-3.4C326.8,455.1,325.2,453.5,323.4,453.5z
		 M323.4,459.3c-1.3,0-2.4-1.1-2.4-2.4s1.1-2.4,2.4-2.4s2.4,1.1,2.4,2.4C325.7,458.2,324.7,459.3,323.4,459.3z"/>
	<path class="st4" d="M357.5,453.5c-1.9,0-3.4,1.5-3.4,3.4s1.5,3.4,3.4,3.4s3.4-1.5,3.4-3.4C360.8,455.1,359.3,453.5,357.5,453.5z
		 M357.5,459.3c-1.3,0-2.4-1.1-2.4-2.4s1.1-2.4,2.4-2.4s2.4,1.1,2.4,2.4S358.8,459.3,357.5,459.3z"/>
	<path class="st4" d="M337.5,453.5c-1.9,0-3.4,1.5-3.4,3.4s1.5,3.4,3.4,3.4s3.4-1.5,3.4-3.4C340.9,455.1,339.4,453.5,337.5,453.5z
		 M337.5,459.3c-1.3,0-2.4-1.1-2.4-2.4s1.1-2.4,2.4-2.4s2.4,1.1,2.4,2.4C339.9,458.2,338.8,459.3,337.5,459.3z"/>
	<path class="st4" d="M340.9,405.7c-21.3,0-38.5,17.2-38.5,38.5s17.2,38.5,38.5,38.5s38.5-17.2,38.5-38.5S362.2,405.7,340.9,405.7z
		 M323.4,461.9c-2.8,0-5-2.2-5-5s2.2-5,5-5s5,2.2,5,5S326.1,461.9,323.4,461.9z M337.5,461.9c-2.8,0-5-2.2-5-5s2.2-5,5-5s5,2.2,5,5
		S340.3,461.9,337.5,461.9z M357.5,461.9c-2.8,0-5-2.2-5-5s2.2-5,5-5s5,2.2,5,5S360.2,461.9,357.5,461.9z M367.7,456.6h-3.5
		c-0.4,0-0.7-0.3-0.8-0.7c-0.5-2.9-2.9-5-5.9-5s-5.4,2.1-5.9,5c-0.1,0.4-0.4,0.7-0.8,0.7h-6.6c-0.4,0-0.7-0.3-0.8-0.7
		c-0.5-2.9-2.9-5-5.9-5s-5.4,2.1-5.9,5c-0.1,0.4-0.4,0.7-0.8,0.7h-0.7c-0.4,0-0.7-0.3-0.8-0.7c-0.5-2.9-2.9-5-5.9-5s-5.4,2.1-5.9,5
		c-0.1,0.4-0.4,0.7-0.8,0.7h-2.6c-0.5,0-0.8-0.4-0.8-0.8v-5.6c0-0.5,0.4-0.8,0.8-0.8c0.5,0,0.8,0.4,0.8,0.8v4.8h1.1
		c0.4-1.5,1.2-2.8,2.4-3.9c1.4-1.2,3.1-1.8,5-1.8c1.8,0,3.6,0.7,5,1.8c0.9,0.8,1.7,1.8,2.1,2.9c0.5-1.1,1.2-2.1,2.1-2.9
		c1.4-1.2,3.1-1.8,5-1.8c1.8,0,3.6,0.7,5,1.8c1.2,1,2,2.4,2.4,3.9h3.1v-26.8h-22.4c-5.9,0-10.6,4.8-10.6,10.6v8.1
		c0,0.5-0.4,0.8-0.8,0.8s-0.8-0.4-0.8-0.8v-8.1c0-6.8,5.5-12.3,12.3-12.3H349c0.5,0,0.8,0.4,0.8,0.8v3.3h11.7c2.2,0,4.1,1.6,4.6,3.7
		l2.7,12.9c0,0.1,0,0.1,0,0.2v8.3C368.5,456.3,368.2,456.6,367.7,456.6z M335.6,431.2c-0.1-0.4,0.2-0.9,0.6-1s0.9,0.2,1,0.6l0.7,3.7
		c0,0.2,0,0.4-0.1,0.6s-0.3,0.3-0.5,0.3l-3.7,0.7c-0.1,0-0.1,0-0.2,0c-0.4,0-0.7-0.3-0.8-0.7c-0.1-0.4,0.2-0.9,0.6-1l1.9-0.4
		c-0.9-0.6-2-0.9-3.1-0.9c-1.6,0-3.1,0.6-4.3,1.8c-1.7,1.7-2.2,4.1-1.4,6.3c0.2,0.4-0.1,0.9-0.5,1c-0.1,0-0.2,0-0.3,0
		c-0.3,0-0.7-0.2-0.8-0.5c-1-2.8-0.3-6,1.8-8.1c2.5-2.5,6.3-2.9,9.2-1.3L335.6,431.2z M328.7,447.8c0.1,0.4-0.2,0.9-0.6,1
		c-0.1,0-0.1,0-0.2,0c-0.4,0-0.7-0.3-0.8-0.7l-0.7-3.7c-0.1-0.4,0.2-0.9,0.6-1l3.7-0.7c0.4-0.1,0.9,0.2,1,0.6s-0.2,0.9-0.6,1
		l-1.9,0.4c0.9,0.6,2,0.9,3.1,0.9c1.6,0,3.1-0.6,4.3-1.8c1.7-1.7,2.2-4.1,1.4-6.3c-0.1-0.4,0.1-0.9,0.5-1s0.9,0.1,1,0.5
		c1,2.8,0.3,5.9-1.8,8c-1.5,1.5-3.5,2.3-5.5,2.3c-1.3,0-2.6-0.3-3.8-1L328.7,447.8z"/>
	<path class="st4" d="M361.3,432.3h-11.7V455h0.5c0.4-1.5,1.2-2.8,2.4-3.9c1.4-1.2,3.1-1.8,5-1.8c1.8,0,3.6,0.7,5,1.8
		c1.2,1,2,2.4,2.4,3.9h2.1v-4.5h-1.4c-0.5,0-0.8-0.4-0.8-0.8s0.4-0.8,0.8-0.8h1.4v-1.3l-2.6-12.8C364,433.4,362.7,432.3,361.3,432.3
		z M363.9,442.9c-0.2,0.2-0.4,0.3-0.6,0.3h-6.1c-0.5,0-0.8-0.4-0.8-0.8c0-0.5,0.4-0.8,0.8-0.8h5.1l-1-4.7c-0.1-0.7-0.8-1.3-1.5-1.3
		h-6.9v5.9h1.1c0.5,0,0.8,0.4,0.8,0.8s-0.4,0.8-0.8,0.8h-1.9c-0.5,0-0.8-0.4-0.8-0.8v-7.6c0-0.5,0.4-0.8,0.8-0.8h7.7
		c1.5,0,2.8,1.1,3.2,2.6l1.2,5.6C364.2,442.4,364.1,442.7,363.9,442.9z"/>
</g>
<g>
	<polygon class="st4" points="465.4,451.9 469.3,451.9 473.9,439.5 465.4,439.5 	"/>
	<polygon class="st4" points="458.6,451.9 462.6,451.9 462.6,439.5 454,439.5 	"/>
	<path class="st4" d="M463.9,405.7c-21.3,0-38.5,17.2-38.5,38.5s17.2,38.5,38.5,38.5s38.5-17.2,38.5-38.5S485.1,405.7,463.9,405.7z
		 M479,438.9c-0.2,0.4-0.5,0.6-1,0.6h-1.1l-5,13.6c-0.3,0.9-1.3,1.6-2.3,1.6h-0.4l-1,2.8c-0.2,0.7-1,1.2-1.7,1.2h-0.9v8.5
		c0,0.9-0.7,1.6-1.6,1.6s-1.6-0.7-1.6-1.6v-8.5h-0.9c-0.7,0-1.4-0.5-1.7-1.2l-1-2.8h-0.4c-1,0-2-0.7-2.3-1.6l-5-13.6h-1.3
		c-0.5,0-0.8-0.2-1-0.6s-0.1-0.8,0.3-1.1l9.2-9.7c0.4-0.4,1.1-0.7,1.6-0.7h2.3v-0.6c-1.2-0.6-2.1-1.9-2.1-3.4c0-2.1,1.7-3.9,3.9-3.9
		s3.9,1.7,3.9,3.9c0,1.5-0.8,2.8-2.1,3.4v0.6h2.1c0.6,0,1.2,0.3,1.6,0.7l9.2,9.7C479,438.1,479.1,438.6,479,438.9z"/>
</g>
<g>
	<polygon class="st4" points="69.7,559.6 69.7,554.2 66.9,556.9 	"/>
	<polygon class="st4" points="66.6,549.6 66.6,550.1 66.6,555.1 69.4,552.3 	"/>
	<polygon class="st4" points="69.7,550.5 69.7,550.1 69.7,545 66.9,547.8 	"/>
	<polygon class="st4" points="66.6,540.5 66.6,545.9 69.4,543.2 	"/>
	<polygon class="st4" points="69.7,565.3 69.7,563.3 67.7,565.3 	"/>
	<polygon class="st4" points="66.6,558.7 66.6,564.2 69.4,561.5 	"/>
	<polygon class="st4" points="65.9,526.3 57.4,531 65.9,531 	"/>
	<rect x="67.4" y="525.7" class="st4" width="1.5" height="5.3"/>
	<polygon class="st4" points="84.4,559.9 94.4,559.9 89.4,554.9 	"/>
	<polygon class="st4" points="69.7,541.4 69.7,535.9 66.9,538.7 	"/>
	<polygon class="st4" points="66.6,535.6 66.6,536.8 67.8,535.6 	"/>
	<polygon class="st4" points="69.7,533.8 69.7,532.6 66.6,532.6 66.6,534.1 69.4,534.1 	"/>
	<rect x="81.1" y="561.5" class="st4" width="16.7" height="5.3"/>
	<rect x="87.9" y="532.6" class="st4" width="3" height="1.5"/>
	<rect x="87.9" y="535.6" class="st4" width="3" height="6.8"/>
	<polygon class="st4" points="70.4,531 91.7,531 92,531 70.4,525.9 	"/>
	<path class="st4" d="M76.5,508.5C55.2,508.5,38,525.7,38,547s17.2,38.5,38.5,38.5S115,568.3,115,547S97.8,508.5,76.5,508.5z
		 M99.3,534.8c0,0.4-0.3,0.8-0.8,0.8h-6.1v10.6c0,0.4-0.3,0.8-0.8,0.8h-1.5v1.6c0.8,0.2,1.5,0.8,1.9,1.5c0.8,1.5,0.2,3.3-1.2,4.1
		l5.7,5.7h2c0.4,0,0.8,0.3,0.8,0.8v6.8c0,0.4-0.3,0.8-0.8,0.8H80.3c-0.4,0-0.8-0.3-0.8-0.8v-6.8c0-0.4,0.3-0.8,0.8-0.8h2l5.7-5.7
		c-1-0.5-1.6-1.5-1.6-2.7v-0.8h1.5v0.8c0,0.8,0.7,1.5,1.5,1.5s1.5-0.7,1.5-1.5s-0.7-1.5-1.5-1.5c-0.4,0-0.8-0.3-0.8-0.8V547h-1.5
		c-0.4,0-0.8-0.3-0.8-0.8v-10.6H71.2v14.1l2.8,2.8c0.1,0.1,0.2,0.3,0.2,0.5v12.2h1.5v4.6H60.5v-4.6H62V553c0-0.2,0.1-0.4,0.2-0.5
		l2.8-2.8v-14.1H54.5c-0.4,0-0.8-0.3-0.8-0.8v-3l0,0c0-0.1,0-0.2,0.1-0.3l0,0c0-0.1,0.1-0.2,0.2-0.2c0,0,0,0,0.1-0.1l0.1-0.1
		l12.2-6.8c0,0,0,0,0.1,0c0,0,0,0,0.1,0s0.2-0.1,0.3-0.1h3c0.1,0,0.1,0,0.2,0L99,531c0,0,0,0,0.1,0c0,0,0.1,0,0.1,0.1
		c0.1,0.1,0.2,0.2,0.3,0.3c0,0,0,0.1,0.1,0.1c0,0.1,0,0.1,0,0.2v0.1L99.3,534.8L99.3,534.8z"/>
	<rect x="92.5" y="532.6" class="st4" width="5.3" height="1.5"/>
	<rect x="55.2" y="532.6" class="st4" width="9.9" height="1.5"/>
	<polygon class="st4" points="65.1,551.9 63.6,553.4 63.6,565.3 65.1,565.3 	"/>
	<rect x="87.9" y="544" class="st4" width="3" height="1.5"/>
	<rect x="62.1" y="566.8" class="st4" width="12.2" height="1.5"/>
	<polygon class="st4" points="71.2,565.3 72.7,565.3 72.7,553.4 71.2,551.9 	"/>
	<rect x="71.2" y="532.6" class="st4" width="15.2" height="1.5"/>
</g>
<path class="st4" d="M329.7,508.5c-21.3,0-38.5,17.2-38.5,38.5s17.2,38.5,38.5,38.5s38.5-17.2,38.5-38.5S350.9,508.5,329.7,508.5z
	 M328.2,566.1c-2.9,0-4.9-2.1-4.9-5s2-5,4.9-5c3,0,4.9,2.1,4.9,5S331.2,566.1,328.2,566.1z M334.9,545.7c-2,2.3-2.9,4.4-2.8,6.9v1
	h-7.3l-0.1-1.4c-0.2-2.8,0.8-5.7,3.2-8.6c1.8-2.1,3.2-3.8,3.2-5.7s-1.3-3.2-4-3.3c-1.8,0-4,0.7-5.4,1.6l-1.9-6
	c2-1.2,5.3-2.3,9.2-2.3c7.2,0,10.5,4,10.5,8.6C339.5,540.6,336.9,543.4,334.9,545.7z"/>
<g>
	<path class="st4" d="M70.8,450.3c0,7.2,5.9,13.1,13.1,13.1S97,457.5,97,450.3c0-5.6-8.5-18-13.1-24.1
		C79.3,432.3,70.8,444.7,70.8,450.3z M89.9,450.3c0-1,0.8-1.8,1.8-1.8s1.8,0.8,1.8,1.8c0,5.3-4.3,9.6-9.6,9.6c-1,0-1.8-0.8-1.8-1.8
		s0.8-1.8,1.8-1.8C87.2,456.3,89.9,453.6,89.9,450.3z"/>
	<path class="st4" d="M83.9,405.7c-21.3,0-38.5,17.2-38.5,38.5s17.2,38.5,38.5,38.5s38.5-17.2,38.5-38.5S105.2,405.7,83.9,405.7z
		 M83.9,466.9c-9.2,0-16.6-7.5-16.6-16.6c0-8.6,13.7-26.2,15.2-28.1c0.3-0.4,0.8-0.7,1.4-0.7c0.5,0,1.1,0.2,1.4,0.7
		c1.6,2,15.2,19.6,15.2,28.1C100.5,459.5,93.1,466.9,83.9,466.9z"/>
</g>
<g>
	<rect x="203.1" y="454.4" class="st4" width="13.8" height="1.3"/>
	<path class="st4" d="M190.5,443.9l1.6-1.6c0.4-0.4,1.1-0.4,1.5,0s0.4,1.1,0,1.5l-3.1,3.1v6.4c3.3-0.5,5.8-3.4,5.8-6.8
		c0-5.9-4.8-17.6-6.9-22.5c-2.1,4.8-6.9,16.5-6.9,22.5c0,3.5,2.5,6.3,5.8,6.8v-3l-3.1-3.1c-0.4-0.4-0.4-1.1,0-1.5s1.1-0.4,1.5,0
		l1.6,1.6v-5.4c0-0.6,0.5-1.1,1.1-1.1s1.1,0.5,1.1,1.1L190.5,443.9L190.5,443.9z"/>
	<path class="st4" d="M188.4,455.5c-4.5-0.5-8-4.4-8-9c0-8,7.8-24.8,8.1-25.5c0.2-0.4,0.6-0.6,1-0.6s0.8,0.2,1,0.6
		c0.3,0.7,8.1,17.5,8.1,25.5c0,4.6-3.5,8.5-8,9V466h8.3l0.7-3.6h-1c-0.6,0-1.1-0.5-1.1-1.1s0.5-1.1,1.1-1.1h2.4v-2.4h-1.2
		c-0.6,0-1.1-0.5-1.1-1.1s0.5-1.1,1.1-1.1h1.2v-1.3h-1.2c-0.6,0-1.1-0.5-1.1-1.1s0.5-1.1,1.1-1.1h20.5c0.6,0,1.1,0.5,1.1,1.1
		s-0.5,1.1-1.1,1.1h-1.2v1.3h1.2c0.6,0,1.1,0.5,1.1,1.1s-0.5,1.1-1.1,1.1h-1.2v2.4h2.4c0.6,0,1.1,0.5,1.1,1.1s-0.5,1.1-1.1,1.1h-1
		l0.7,3.6h3.7v-26.6c-1.3-0.4-2.3-1.7-2.3-3.2v-4.6c0-0.6,0.5-1.1,1.1-1.1h1.2v-1.3h-2.4c-0.6,0-1.1-0.5-1.1-1.1s0.5-1.1,1.1-1.1
		h6.8c0.6,0,1.1,0.5,1.1,1.1s-0.5,1.1-1.1,1.1H227v1.3h1.2c0.6,0,1.1,0.5,1.1,1.1v4.6c0,1.5-1,2.7-2.3,3.2V466h7v-9.4
		c-2.6-0.5-4.6-2.6-4.6-5.2c0-1.3,0.5-4.6,1.4-7.6c1.2-4.3,2.6-6.3,4.3-6.3s3,2,4.3,6.3c0.9,3,1.4,6.3,1.4,7.6c0,2.6-2,4.8-4.6,5.2
		v9.4h6.8c4.2-6.2,6.7-13.7,6.7-21.7c0-21.3-17.2-38.5-38.5-38.5s-38.5,17.2-38.5,38.5c0,8.1,2.5,15.6,6.7,21.7h9L188.4,455.5
		L188.4,455.5z"/>
	<path class="st4" d="M211.1,482.7c12.2,0,23.1-5.7,30.2-14.6h-60.4C188,477,198.9,482.7,211.1,482.7z"/>
	<rect x="203.1" y="457.8" class="st4" width="13.8" height="2.4"/>
	<polygon class="st4" points="201.7,462.4 201,466 219,466 218.3,462.4 	"/>
	<path class="st4" d="M236.2,454.4c1.4-0.4,2.4-1.6,2.4-3.1c0-1-0.4-3.8-1.2-6.7c-1.1-4.2-2.1-5-2.3-5.1c-0.2,0.1-1.1,0.9-2.3,5.1
		c-0.8,2.9-1.2,5.7-1.2,6.7c0,1.4,1,2.6,2.4,3.1v-2.2c0-0.6,0.5-1.1,1.1-1.1s1.1,0.5,1.1,1.1V454.4L236.2,454.4z"/>
	<path class="st4" d="M227.2,432.7h-2.4v3.5c0,0.7,0.5,1.2,1.2,1.2s1.2-0.5,1.2-1.2V432.7z"/>
</g>
<g>
	<circle class="st4" cx="193.4" cy="558.4" r="1.4"/>
	<path class="st4" d="M201.1,555.6l1.7-1l-1.4-2.5l-1.7,1c-0.5,0.3-1.2,0.2-1.6-0.1c-0.7-0.6-1.4-1-2.2-1.3
		c-0.6-0.2-0.9-0.7-0.9-1.3v-1.9h-3v1.9c0,0.6-0.4,1.1-0.9,1.3c-0.8,0.3-1.6,0.7-2.2,1.3c-0.5,0.4-1.1,0.5-1.6,0.1l-1.7-1l-1.4,2.5
		l1.7,1c0.5,0.3,0.8,0.9,0.7,1.5c-0.2,1-0.2,1.6,0,2.6c0.1,0.6-0.2,1.2-0.7,1.5l-1.7,1l1.4,2.5l1.7-1c0.5-0.3,1.2-0.2,1.6,0.2
		c0.7,0.6,1.4,1,2.2,1.3c0.6,0.2,0.9,0.7,0.9,1.3v2h2.8v-2c0-0.6,0.4-1.1,0.9-1.3c0.8-0.3,1.6-0.7,2.2-1.3c0.5-0.4,1.1-0.5,1.6-0.2
		l1.7,1l1.4-2.5l-1.7-1c-0.5-0.3-0.8-0.9-0.7-1.5c0.2-1,0.2-1.6,0-2.6C200.3,556.5,200.6,555.9,201.1,555.6z M193.4,562.7
		c-2.4,0-4.3-1.9-4.3-4.3c0-2.4,1.9-4.3,4.3-4.3s4.3,1.9,4.3,4.3C197.7,560.7,195.8,562.7,193.4,562.7z"/>
	<path class="st4" d="M192,543.6v1.9h2.8v-1.9c0-0.6,0.4-1.1,0.9-1.3c0.8-0.3,1.6-0.7,2.2-1.3c0.5-0.4,1.1-0.5,1.6-0.2l1.8,1.1
		l1.4-2.5l-1.8-1.1c-0.5-0.3-0.8-0.9-0.7-1.5c0.2-1,0.2-1.6,0-2.6c-0.1-0.6,0.2-1.2,0.7-1.5l1.7-1l-1.4-2.5l-1.7,1
		c-0.5,0.3-1.2,0.2-1.6-0.1c-0.7-0.6-1.4-1-2.2-1.3c-0.6-0.2-0.9-0.7-0.9-1.3v-2H192v2c0,0.6-0.4,1.1-0.9,1.3
		c-0.8,0.3-1.6,0.7-2.2,1.3c-0.5,0.4-1.1,0.5-1.6,0.1l-1.7-1l-1.4,2.5l1.7,1c0.5,0.3,0.8,0.9,0.7,1.5c-0.2,1-0.2,1.6,0,2.6
		c0.1,0.6-0.2,1.2-0.7,1.5l-1.7,1l1.4,2.5l1.7-1c0.5-0.3,1.2-0.2,1.6,0.2c0.7,0.6,1.4,1,2.2,1.3C191.6,542.5,192,543,192,543.6z
		 M189.1,535.6c0-2.4,1.9-4.3,4.3-4.3s4.3,1.9,4.3,4.3s-1.9,4.3-4.3,4.3C191.1,539.9,189.1,538,189.1,535.6z"/>
	<circle class="st4" cx="193.4" cy="535.6" r="1.4"/>
	<path class="st4" d="M199,543.8c-0.4,0.3-0.9,0.6-1.4,0.8v4.8c0.5,0.2,0.9,0.5,1.4,0.8l4.4-2.4c-0.1-0.6,0-1.1,0-1.6L199,543.8z"/>
	<circle class="st4" cx="213.3" cy="547" r="1.4"/>
	<path class="st4" d="M203.4,508.5c-21.3,0-38.5,17.2-38.5,38.5s17.2,38.5,38.5,38.5s38.5-17.2,38.5-38.5S224.6,508.5,203.4,508.5z
		 M223.2,547.8l2.1,1.2c0.7,0.4,0.9,1.3,0.5,1.9l-2.8,4.9c-0.4,0.7-1.3,0.9-1.9,0.5l-2.1-1.2c-0.4,0.3-0.9,0.6-1.4,0.8v2.4
		c0,0.8-0.6,1.4-1.4,1.4h-5.7c-0.8,0-1.4-0.6-1.4-1.4V556c-0.5-0.2-0.9-0.5-1.4-0.8l-4.4,2.4c0.1,0.6,0,1.1,0,1.6l2.1,1.2
		c0.7,0.4,0.9,1.3,0.5,1.9l-2.8,4.9c-0.2,0.3-0.5,0.6-0.9,0.7c-0.4,0.1-0.8,0-1.1-0.1l-2.1-1.2c-0.4,0.3-0.9,0.6-1.4,0.8v2.5
		c0,0.8-0.6,1.4-1.4,1.4h-5.7c-0.8,0-1.4-0.6-1.4-1.4v-2.5c-0.5-0.2-0.9-0.5-1.4-0.8l-2.1,1.2c-0.7,0.4-1.6,0.2-1.9-0.5l-2.8-4.9
		c-0.4-0.7-0.2-1.5,0.5-1.9l2.1-1.2c-0.1-0.6,0-1.1,0-1.6l-2.1-1.2c-0.7-0.4-0.9-1.3-0.5-1.9l2.8-4.9c0.4-0.7,1.3-0.9,1.9-0.5
		l2.1,1.2c0.4-0.3,0.9-0.6,1.4-0.8v-4.8c-0.5-0.2-0.9-0.5-1.4-0.8l-2.1,1.2c-0.7,0.4-1.6,0.2-1.9-0.5l-2.8-4.9
		c-0.4-0.7-0.2-1.5,0.5-1.9l2.1-1.2c-0.1-0.6,0-1.1,0-1.6l-2.1-1.2c-0.7-0.4-0.9-1.3-0.5-1.9l2.8-4.9c0.4-0.7,1.3-0.9,1.9-0.5
		l2.1,1.2c0.4-0.3,0.9-0.6,1.4-0.8v-2.5c0-0.8,0.6-1.4,1.4-1.4h5.7c0.8,0,1.4,0.6,1.4,1.4v2.5c0.5,0.2,0.9,0.5,1.4,0.8l2.1-1.2
		c0.7-0.4,1.6-0.2,1.9,0.5l2.8,4.9c0.4,0.7,0.2,1.5-0.5,1.9l-2.1,1.2c0.1,0.6,0,1.1,0,1.6l4.4,2.4c0.4-0.3,0.9-0.6,1.4-0.8v-2.4
		c0-0.8,0.6-1.4,1.4-1.4h5.7c0.8,0,1.4,0.6,1.4,1.4v2.4c0.5,0.2,0.9,0.5,1.4,0.8l2.1-1.2c0.7-0.4,1.6-0.2,1.9,0.5l2.8,4.9
		c0.4,0.7,0.2,1.5-0.5,1.9l-2.1,1.2C223.3,546.8,223.3,547.3,223.2,547.8z"/>
	<path class="st4" d="M221,544.2l1.7-1l-1.4-2.5l-1.7,1c-0.5,0.3-1.2,0.2-1.6-0.1c-0.7-0.6-1.4-1-2.2-1.3c-0.6-0.2-0.9-0.7-0.9-1.3
		v-1.9h-2.8v1.9c0,0.6-0.4,1.1-0.9,1.3c-0.8,0.3-1.6,0.7-2.2,1.3c-0.5,0.4-1.1,0.5-1.6,0.1l-1.7-1l-1.4,2.5l1.7,1
		c0.5,0.3,0.8,0.9,0.7,1.5c-0.2,1-0.2,1.6,0,2.6c0.1,0.6-0.2,1.2-0.7,1.5l-1.8,1.1l1.4,2.5l1.8-1.1c0.5-0.3,1.2-0.2,1.6,0.2
		c0.7,0.6,1.4,1,2.2,1.3c0.6,0.2,0.9,0.7,0.9,1.3v1.9h2.8v-2c0-0.6,0.4-1.1,0.9-1.3c0.8-0.3,1.6-0.7,2.2-1.3
		c0.5-0.4,1.1-0.5,1.6-0.2l1.7,1l1.4-2.5l-1.7-1c-0.5-0.3-0.8-0.9-0.7-1.5c0.2-1,0.2-1.6,0-2.6C220.2,545.1,220.5,544.5,221,544.2z
		 M213.3,551.3c-2.4,0-4.3-1.9-4.3-4.3c0-2.4,1.9-4.3,4.3-4.3s4.3,1.9,4.3,4.3C217.6,549.4,215.7,551.3,213.3,551.3z"/>
</g>
<path class="st4" d="M467.8,549.6l23.5-23.5c0.3-0.3,0.5-0.7,0.5-1.2s-0.2-0.9-0.5-1.2c-0.6-0.6-1.7-0.6-2.4,0l-23.5,23.5
	l-23.5-23.5c-0.6-0.6-1.7-0.6-2.4,0c-0.3,0.3-0.5,0.7-0.5,1.2s0.2,0.9,0.5,1.2l23.5,23.5l-23.5,23.5c-0.3,0.3-0.5,0.7-0.5,1.2
	s0.2,0.9,0.5,1.2s0.7,0.5,1.2,0.5s0.9-0.2,1.2-0.5l23.5-23.5l23.5,23.5c0.3,0.3,0.7,0.5,1.2,0.5s0.9-0.2,1.2-0.5
	c0.3-0.3,0.5-0.7,0.5-1.2s-0.2-0.9-0.5-1.2L467.8,549.6z"/>
<path class="st4" d="M106.3,634.4c-0.5-1.1-1.5-1.9-2.7-2c-2-0.2-3.1,1.1-3.6,1.8c-7.1,9-14.3,18-21.4,26.9
	c-2.2,2.8-4.5,5.6-6.8,8.5l-1.7,2.1l-2.5-3.2c-2.1-2.7-4.2-5.3-6.3-8c-0.8-1-1.9-1.6-3-1.6c-0.8,0-1.5,0.3-2.1,0.7
	c-1.6,1.3-1.7,3.4-0.3,5.2c3.7,4.7,7.4,9.4,11.2,14c0.8,1,1.9,1.6,3.1,1.6s2.3-0.6,3.2-1.6c0.2-0.3,0.4-0.5,0.6-0.8l21.9-27.5
	c3.3-4.2,6.6-8.3,9.9-12.5C106.6,637.1,106.8,635.7,106.3,634.4z"/>
<path class="st6" d="M106.3,725.6c-0.5-1.1-1.5-1.9-2.7-2c-2-0.2-3.1,1.1-3.6,1.8c-7.1,9-14.3,18-21.4,26.9
	c-2.2,2.8-4.5,5.6-6.8,8.5l-1.7,2.1l-2.5-3.2c-2.1-2.7-4.2-5.3-6.3-8c-0.8-1-1.9-1.6-3-1.6c-0.8,0-1.5,0.3-2.1,0.7
	c-1.6,1.3-1.7,3.4-0.3,5.2c3.7,4.7,7.4,9.4,11.2,14c0.8,1,1.9,1.6,3.1,1.6s2.3-0.6,3.2-1.6c0.2-0.3,0.4-0.5,0.6-0.8l21.9-27.5
	c3.3-4.2,6.6-8.3,9.9-12.5C106.6,728.3,106.8,726.8,106.3,725.6z"/>
<g>
	<g>
		<path class="st6" d="M532.9,341.5l-1.4,1.4l-8.4-8.4l1.4-1.4c1.5-1.5,4.1-1.5,5.6,0l2.8,2.8C534.5,337.5,534.5,340,532.9,341.5
			L532.9,341.5z M513.3,358.4c-0.4,0.4-0.4,1,0,1.4s1,0.4,1.4,0l15.4-15.4l-1.4-1.4L513.3,358.4z M506.3,351.4c-0.4,0.4-0.4,1,0,1.4
			s1,0.4,1.4,0l15.4-15.4l-1.4-1.4L506.3,351.4z M524.5,338.7l-15.4,15.4c-0.8,0.8-0.8,2,0,2.8s2,0.8,2.8,0l15.4-15.4L524.5,338.7z
			 M511.9,361.2c-0.5-0.5-0.7-1.1-0.8-1.7c-0.2,0-0.4,0.1-0.6,0.1c-1.1,0-2.1-0.4-2.8-1.2c-0.7-0.8-1.2-1.7-1.2-2.8
			c0-0.2,0-0.4,0.1-0.6c-0.6-0.1-1.2-0.4-1.7-0.8c0,0-0.1-0.1-0.1-0.2l-2.4,9.7l9.7-2.4C512,361.2,511.9,361.2,511.9,361.2
			L511.9,361.2z"/>
	</g>
</g>
<path class="st6" d="M205.6,702.9c-20.8-0.3-37.2-17.1-36.9-37.9c0.3-20.3,17.3-36.7,37.7-36.4c20.8,0.3,37,17.2,36.6,38.1
	C242.7,686.8,225.7,703.2,205.6,702.9z M188.7,651c11.5,0,22.9,0,34.4,0c0,5.5,0,11,0,16.4c1.5,0,2.8,0,4.2,0c0-6.1,0-12.1,0-18.1
	c0-2-0.5-2.6-2.6-2.6c-12.6,0-25.2,0-37.7,0c-2.1,0-2.6,0.5-2.6,2.6c0,10.9,0,21.9,0,32.8c0,2.1,0.5,2.7,2.7,2.7
	c11.1,0,22.3,0,33.4,0c0.5,0,1-0.1,1.5-0.1c0-0.8,0-1.4,0-2.1c-1.9,0-3.7,0-5.7,0c0-2.9,0-5.8,0-8.9c-2.3,0.9-3.1-0.6-4-2
	c-0.4-0.7-0.9-1.4-1.3-2.1c-1.1-1.8-2.3-3.5-3.5-5.4c-0.7,1.1-1.3,2.1-1.9,3c-0.4,0.6-0.4,1,0,1.7c1.1,1.6,2.1,3.2,3.1,4.9
	c-1.4,0.5-2.3,0.1-3.1-1.2c-2-3.3-4.1-6.5-6.1-9.7c-0.3-0.4-0.6-0.8-0.9-1.4c-2.5,3.8-4.9,7.5-7.1,11.2c-0.7,1.2-1.5,1.4-2.7,1
	C188.7,666.1,188.7,658.6,188.7,651z M218.9,676c0,1.4,0,2.7,0,4.1c1.9,0,3.7,0,5.7,0c0,2,0,3.8,0,5.7c1.4,0,2.6,0,4.1,0
	c0-1.9,0-3.8,0-5.8c2,0,3.8,0,5.7,0c0-1.4,0-2.6,0-4c-1.9,0-3.7,0-5.7,0c0-2,0-3.9,0-5.7c-1.4,0-2.7,0-4.1,0c0,1.9,0,3.8,0,5.7
	C222.6,676,220.8,676,218.9,676z M216.3,662.3c2,0,3.7-1.7,3.7-3.7s-1.7-3.7-3.7-3.7s-3.7,1.7-3.7,3.7
	C212.7,660.6,214.3,662.3,216.3,662.3z"/>
<g>
	<circle class="st6" cx="357.2" cy="661" r="1.4"/>
	<path class="st6" d="M342.2,657.5c-5.7,0-10.3,4.6-10.3,10.3s4.6,10.3,10.3,10.3c5.7,0,10.3-4.6,10.3-10.3S347.9,657.5,342.2,657.5
		z M342.2,674c-3.4,0-6.2-2.8-6.2-6.2s2.8-6.2,6.2-6.2c3.4,0,6.2,2.8,6.2,6.2C348.4,671.2,345.6,674,342.2,674z"/>
	<path class="st6" d="M342.2,628.6c-20.5,0-37.2,16.6-37.2,37.2s16.6,37.2,37.2,37.2s37.2-16.6,37.2-37.2S362.7,628.6,342.2,628.6z
		 M362.8,678.1c0,2.3-1.9,4.1-4.1,4.1h-32.9c-2.3,0-4.1-1.9-4.1-4.1v-18.5c0-2.3,1.9-4.1,4.1-4.1h4.9c0.7,0,1.4-0.5,1.6-1.2l1.3-3.8
		c0.2-0.6,0.9-1.2,1.6-1.2h14c0.7,0,1.4,0.5,1.6,1.2l1.3,3.8c0.2,0.6,0.9,1.2,1.6,1.2h4.9c2.3,0,4.1,1.9,4.1,4.1L362.8,678.1
		L362.8,678.1z"/>
</g>
<g>
	<path class="st4" d="M473.9,657.8c-6.6,0-12,5.4-12,12s5.4,12,12,12s12-5.4,12-12C485.9,663.1,480.5,657.8,473.9,657.8L473.9,657.8
		z M505.9,645.8h-9.6c-1.3,0-2.7-1-3.2-2.3l-2.5-7.4c-0.4-1.3-1.8-2.3-3.2-2.3h-27.2c-1.3,0-2.7,1-3.2,2.3l-2.5,7.4
		c-0.4,1.3-1.8,2.3-3.2,2.3h-9.6c-4.4,0-8,3.6-8,8v36c0,4.4,3.6,8,8,8h64c4.4,0,8-3.6,8-8v-36C513.9,649.4,510.3,645.8,505.9,645.8
		L505.9,645.8z M473.9,689.8c-11,0-20-9-20-20s9-20,20-20s20,9,20,20S484.9,689.8,473.9,689.8L473.9,689.8z M503.1,659.4
		c-1.5,0-2.8-1.3-2.8-2.8s1.3-2.8,2.8-2.8s2.8,1.3,2.8,2.8C505.9,658.1,504.6,659.4,503.1,659.4L503.1,659.4z"/>
</g>
<g>
	<g>
		<path class="st4" d="M557.3,254.2c-0.6,0.6-1.6,0.6-2.2,0c-0.6-0.6-0.6-1.6,0-2.1l10.9-10.9h-36.1c-0.8,0-1.5-0.7-1.5-1.5
			s0.7-1.5,1.5-1.5H566l-10.9-10.9c-0.6-0.6-0.6-1.6,0-2.2c0.6-0.6,1.6-0.6,2.2,0l13.5,13.5c0.6,0.6,0.6,1.6,0,2.1L557.3,254.2z"/>
	</g>
</g>
<g>
	<rect x="173.5" y="725.8" class="st6" width="64.7" height="64.7"/>
	<path class="st4" d="M223.5,738.2h-9.9v-1.9c0-1.4-1.1-2.5-2.5-2.5h-10.5c-1.4,0-2.6,1.1-2.6,2.5v1.9h-9.8c-1.2,0-2.2,0.9-2.2,2.1
		v1.7v2.1v3h2.7c0,0.1-0.1,0.2-0.1,0.3v32.1c0,1.7,1.8,3,4,3h25.9c2.2,0,4.3-1.4,4.3-3v-32.1c0-0.1-0.1-0.2-0.2-0.3h2.9v-3V742v-1.7
		C225.6,739.1,224.7,738.2,223.5,738.2z M198.5,777.7c0,1.2-0.9,2.1-2.1,2.1h-0.6c-1.2,0-2.1-0.9-2.1-2.1v-25.5
		c0-1.2,0.9-2.1,2.1-2.1h0.6c1.2,0,2.1,1,2.1,2.1V777.7z M208.3,777.7c0,1.2-0.9,2.1-2.1,2.1h-0.6c-1.2,0-2.1-0.9-2.1-2.1v-25.5
		c0-1.2,0.9-2.1,2.1-2.1h0.6c1.2,0,2.1,1,2.1,2.1V777.7z M218.1,777.7c0,1.2-0.9,2.1-2.1,2.1h-0.6c-1.2,0-2.1-0.9-2.1-2.1v-25.5
		c0-1.2,0.9-2.1,2.1-2.1h0.6c1.2,0,2.1,1,2.1,2.1V777.7z M200.3,737.4c0-1.1,0.6-1.8,1.7-1.8h7.9c1.1,0,2,0.8,2,1.8v0.8h-11.5
		L200.3,737.4L200.3,737.4z"/>
</g>
<linearGradient id="shape_2_1_" gradientUnits="userSpaceOnUse" x1="315.85" y1="477.5" x2="315.85" y2="504.5313" gradientTransform="matrix(1 0 0 -1 0 842)">
	<stop  offset="0" style="stop-color:#F9F9F9"/>
	<stop  offset="1" style="stop-color:#FFFFFF"/>
</linearGradient>
<path id="shape_2" class="st7" d="M302.7,364.5l1.9-6.9c-1.2-2-1.8-4.3-1.8-6.7c0-7.4,5.9-13.4,13.1-13.4c3.5,0,6.8,1.4,9.3,3.9
	s3.8,5.9,3.8,9.5c0,7.4-5.9,13.4-13.1,13.4l0,0l0,0c-2.2,0-4.4-0.6-6.3-1.6L302.7,364.5z M310,360.2l0.4,0.2c1.7,1,3.6,1.6,5.6,1.6
	l0,0c6,0,10.9-5,10.9-11.1c0-3-1.1-5.8-3.2-7.9s-4.8-3.3-7.7-3.3c-6,0-10.9,5-10.9,11.1c0,2.1,0.6,4.2,1.7,5.9l0.3,0.4l-1.1,4.1
	L310,360.2z"/>
<path id="shape_1" class="st4" d="M313.7,344.7c-0.2-0.5-0.5-0.6-0.7-0.6s-0.4,0-0.6,0s-0.6,0.1-0.9,0.4s-1.1,1.1-1.1,2.7
	s1.2,3.2,1.3,3.4c0.2,0.2,2.2,3.6,5.5,5c2.7,1.1,3.3,0.9,3.9,0.8s1.9-0.8,2.2-1.6c0.3-0.8,0.3-1.4,0.2-1.6c-0.1-0.1-0.3-0.2-0.6-0.4
	s-1.9-1-2.2-1.1c-0.3-0.1-0.5-0.2-0.7,0.2c-0.2,0.3-0.8,1.1-1,1.3c-0.2,0.2-0.4,0.2-0.7,0.1c-0.3-0.2-1.4-0.5-2.6-1.6
	c-1-0.9-1.6-1.9-1.8-2.3c-0.2-0.3,0-0.5,0.1-0.7c0.1-0.1,0.3-0.4,0.5-0.6s0.2-0.3,0.3-0.5c0.1-0.2,0.1-0.4,0-0.6
	C314.7,346.9,314,345.3,313.7,344.7z"/>
<g id="XMLID_10_">
	<g id="XMLID_14_">
		<path id="XMLID_29_" class="st8" d="M351.5,791.4l-0.1-0.2c-1.8-2-4.3-3.1-7-3.1c-2.7,0-5.2,1.1-7,3.1l-0.1,0.2l-0.2-0.1
			c-2.9-1-5.5-2.5-7.7-4.5l-0.2-0.1l0.1-0.2c0.8-2.5,0.5-5.3-0.8-7.6c-1.3-2.3-3.6-4-6.2-4.5l-0.2,0l0-0.2c-0.3-1.5-0.4-3-0.4-4.5
			c0-1.5,0.1-3,0.4-4.5l0-0.2l0.2,0c2.6-0.6,4.9-2.2,6.2-4.5c0.8-1.4,1.2-2.9,1.2-4.5l0-1.4l0.6,1.2c1.8,4.1,3.8,7.6,5.4,9.9
			l0.1,0.1l-0.1,0.2c-0.5,1.1-0.7,2.4-0.7,3.6c0,5.2,4.2,9.4,9.4,9.4c5.2,0,9.4-4.2,9.4-9.4c0-4.5-3.2-8.4-7.6-9.3l-0.4-0.1l0.2-0.4
			c1.7-3.4,3.4-7.3,4.8-11.2l0-0.1l0.1,0c0.2-0.2,0.4-0.4,0.6-0.6l0.1-0.1l0.2,0.1c1.8,0.6,4.5,1.7,6.1,2.8l-0.3,0.5
			c-1.5-1-4-2-5.8-2.6c-0.1,0.1-0.3,0.3-0.4,0.4c-1.3,3.7-3,7.6-4.6,10.8c4.5,1.1,7.8,5.1,7.8,9.8c0,5.5-4.5,10-10,10
			c-5.5,0-10-4.5-10-10c0-1.3,0.2-2.5,0.7-3.7c-1.5-2.2-3.2-5.3-4.9-8.8c-0.2,1.3-0.6,2.5-1.2,3.6c-1.4,2.4-3.7,4.1-6.4,4.8
			c-0.3,1.4-0.4,2.8-0.4,4.2c0,1.4,0.1,2.8,0.4,4.2c2.7,0.6,5.1,2.3,6.4,4.8c1.4,2.4,1.7,5.3,0.9,7.9c2.1,1.8,4.6,3.2,7.2,4.2
			c1.9-2,4.6-3.2,7.3-3.2c2.8,0,5.4,1.2,7.3,3.2c2.7-0.9,5.1-2.3,7.2-4.2c-0.8-2.7-0.5-5.5,0.9-7.9c1.4-2.4,3.7-4.1,6.4-4.8
			c0.3-1.6,0.5-3,0.5-4.3c0-0.7-0.2-3.7-0.2-4.3l0.6-0.1c0.1,0.6,0.2,3.6,0.2,4.4c0,1.3-0.2,2.9-0.5,4.6l0,0.2l-0.2,0
			c-2.6,0.6-4.9,2.2-6.2,4.5c-1.3,2.3-1.6,5.1-0.8,7.6l0.1,0.2l-0.2,0.1c-2.3,2-4.9,3.5-7.7,4.5L351.5,791.4z"/>
	</g>
	<g id="XMLID_20_">
		<path id="XMLID_70_" class="st8" d="M361.5,744.4c1.2,1.2,2.9,1.9,4.6,1.9s3.3-0.7,4.6-1.9c1.4,0.5,2.6,1.2,3.8,2.2
			c-0.4,1.7-0.2,3.4,0.7,4.9c0.9,1.5,2.3,2.6,3.9,3c0.1,0.7,0.2,1.5,0.2,2.2c0,0.7-0.1,1.5-0.2,2.2c-1.6,0.5-3.1,1.5-3.9,3
			c-0.9,1.5-1.1,3.2-0.7,4.9c-1.1,0.9-2.4,1.7-3.8,2.2c-0.9-0.9-2-1.5-3.3-1.7c-0.1-0.7-0.2-1.4-0.3-2.1c0-0.2-0.2-0.4-0.5-0.5
			c-2.5-0.5-4.7-2.1-6-4.4c-1.3-2.2-1.6-4.9-0.8-7.4c0.1-0.2,0-0.5-0.2-0.6c-0.7-0.6-1.4-1.1-2.1-1.7c0.5-1.3,0.6-2.7,0.2-4
			C358.9,745.7,360.2,744.9,361.5,744.4 M366.1,762.2c3.1,0,5.5-2.5,5.5-5.5s-2.5-5.5-5.5-5.5s-5.5,2.5-5.5,5.5
			S363,762.2,366.1,762.2 M370.5,743.7c-1.1,1.2-2.6,2-4.4,2s-3.3-0.8-4.4-2c-1.7,0.6-3.3,1.5-4.6,2.7c0.5,1.4,0.4,3-0.3,4.4
			c0.9,0.6,1.7,1.2,2.5,1.9c-0.8,2.5-0.6,5.4,0.8,7.9c1.4,2.5,3.8,4.1,6.4,4.6c0.2,0.8,0.3,1.6,0.3,2.5c1.4,0.2,2.7,0.9,3.7,1.9
			c1.7-0.6,3.3-1.5,4.6-2.7c-0.5-1.5-0.4-3.3,0.5-4.8c0.9-1.5,2.3-2.5,3.9-2.8c0.2-0.9,0.3-1.8,0.3-2.7s-0.1-1.8-0.3-2.7
			c-1.6-0.3-3-1.3-3.9-2.8c-0.9-1.5-1-3.3-0.5-4.8C373.8,745.2,372.2,744.3,370.5,743.7L370.5,743.7z M366.1,761.6
			c-2.7,0-4.9-2.2-4.9-4.9s2.2-4.9,4.9-4.9c2.7,0,4.9,2.2,4.9,4.9S368.8,761.6,366.1,761.6L366.1,761.6z"/>
	</g>
	<g id="XMLID_21_">
		<path id="XMLID_17_" class="st8" d="M339,769.5c-1,0-2.3-1.1-3.9-3.4l0.5-0.3c1.9,2.7,2.9,3.2,3.3,3.2c1.5,0,4.1-3.3,6.9-8.9
			l0.5,0.3C344.3,764.5,341.3,769.5,339,769.5z"/>
	</g>
	<g id="XMLID_60_">
		<path id="XMLID_33_" class="st8" d="M329.7,756.1c-3-6.7-6.1-15.5-6.1-20c0-8.5,6.9-15.4,15.4-15.4c8.5,0,15.4,6.9,15.4,15.4
			c0,2.7-1.1,7.4-3.1,12.9l-0.6-0.2c1.9-5.4,3.1-10,3.1-12.7c0-8.2-6.6-14.8-14.8-14.8s-14.8,6.6-14.8,14.8c0,4.4,3,13,6.1,19.7
			L329.7,756.1z M339,742.2c-3.2,0-5.8-2.6-5.8-5.8c0-3.2,2.6-5.8,5.8-5.8c3.2,0,5.8,2.6,5.8,5.8C344.8,739.6,342.2,742.2,339,742.2
			z M339,731.2c-2.9,0-5.2,2.3-5.2,5.2c0,2.9,2.3,5.2,5.2,5.2s5.2-2.3,5.2-5.2C344.2,733.5,341.9,731.2,339,731.2z"/>
	</g>
	<g id="XMLID_9_">
		<path id="XMLID_28_" class="st8" d="M346.5,760.2l-0.5-0.3c1.7-3.4,3.4-7.3,4.8-11.2l0.6,0.2C349.9,752.9,348.2,756.9,346.5,760.2
			z"/>
	</g>
	<g id="XMLID_8_">
		<path id="XMLID_27_" class="st8" d="M335.1,766.1c-1.7-2.4-3.6-5.9-5.5-10l0.6-0.3c1.8,4.1,3.8,7.6,5.4,9.9L335.1,766.1z"/>
	</g>
	<g id="XMLID_62_">
		<path id="XMLID_18_" class="st8" d="M339,742.2c-3.2,0-5.8-2.6-5.8-5.8c0-3.2,2.6-5.8,5.8-5.8c3.2,0,5.8,2.6,5.8,5.8
			C344.8,739.6,342.2,742.2,339,742.2z M339,731.2c-2.9,0-5.2,2.3-5.2,5.2c0,2.9,2.3,5.2,5.2,5.2s5.2-2.3,5.2-5.2
			C344.2,733.5,341.9,731.2,339,731.2z"/>
	</g>
</g>
<circle id="XMLID_15_" class="st9" cx="339" cy="735.7" r="5.2"/>
<path id="XMLID_59_" class="st9" d="M339,729.8c-3.2,0-5.8,2.6-5.8,5.8c0,3.2,2.6,5.8,5.8,5.8c3.2,0,5.8-2.6,5.8-5.8
	C344.8,732.5,342.2,729.8,339,729.8z M339,740.9c-2.9,0-5.2-2.3-5.2-5.2c0-2.9,2.3-5.2,5.2-5.2c2.9,0,5.2,2.3,5.2,5.2
	C344.2,738.6,341.9,740.9,339,740.9z"/>
<path id="XMLID_64_" class="st8" d="M339,720c-8.5,0-15.4,6.9-15.4,15.4c0,4.5,3.1,13.2,6.1,20c1.9,4.1,3.8,7.7,5.5,10
	c1.6,2.3,2.9,3.4,3.9,3.4c2.3,0,5.3-5,7.5-9.3c1.7-3.4,3.4-7.4,4.8-11.3c2-5.5,3.1-10.2,3.1-12.9C354.4,726.9,347.5,720,339,720z
	 M339,741.5c-3.2,0-5.8-2.6-5.8-5.8c0-3.2,2.6-5.8,5.8-5.8c3.2,0,5.8,2.6,5.8,5.8C344.8,738.9,342.2,741.5,339,741.5z"/>
</svg>
