<?xml version="1.0" encoding="utf-8"?>
<!-- Generator: Adobe Illustrator 24.0.0, SVG Export Plug-In . SVG Version: 6.00 Build 0)  -->
<svg version="1.1" id="Capa_1" xmlns="http://www.w3.org/2000/svg" xmlns:xlink="http://www.w3.org/1999/xlink" x="0px" y="0px"
	 viewBox="0 0 595.28 841.89" style="enable-background:new 0 0 595.28 841.89;" xml:space="preserve">
<style type="text/css">
	.st0{fill:none;}
	.st1{fill:#76B1E0;}
	.st2{fill:#0B75BB;}
	.st3{fill:#3588C8;}
	.st4{fill:#FFFFFF;}
</style>
<g>
	<rect x="25.5" y="401.59" class="st0" width="479.5" height="47"/>
	<path class="st1" d="M29.29,429.85h3.96v-24.79h-3.96v-3.46h22.99v7.38h-3.92v-3.69H37.75v10.21H49v3.69H37.75v10.49h11.38v-3.83
		h3.92v7.51H29.29V429.85z"/>
	<path class="st1" d="M57.78,429.85h3.96v-24.57h-3.96v-3.69h12.46v3.69h-4v24.39h11.07v-5.13h3.96v8.82H57.78V429.85z"/>
	<path class="st2" d="M89.37,429.85h4v-24.57H85.9v4.95h-3.91v-8.64h27.27v8.64h-3.92v-4.95h-7.47v24.57h4v3.51H89.37V429.85z"/>
	<path class="st2" d="M112.95,429.85h3.96v-24.79h-3.96v-3.46h22.99v7.38h-3.92v-3.69h-10.62v10.21h11.25v3.69h-11.25v10.49h11.38
		v-3.83h3.92v7.51h-23.76V429.85z"/>
	<path class="st2" d="M144.4,405.05h-4v-3.46h12.51v3.46h-4v16.42c0,2.07,0.41,3.87,1.21,5.17c1.3,2.07,3.78,3.24,6.84,3.24
		c3.01,0,5.54-1.17,6.84-3.33c0.76-1.3,1.21-3.06,1.21-5.13v-16.38h-4v-3.46h12.46v3.46h-3.96v16.47c0,3.02-0.81,5.76-2.21,7.74
		c-2.16,3.06-6.03,4.63-10.35,4.63c-4.5,0-8.28-1.71-10.44-4.63c-1.49-2.03-2.12-4.68-2.12-7.74V405.05z"/>
	<path class="st1" d="M173.88,429.85h3.06l10.13-28.26h5.08l10.13,28.26h3.06v3.51H194.3v-3.51h3.38l-2.47-7.06h-11.25l-2.47,7.06
		h3.42v3.51h-11.02V429.85z M194.08,419.18l-3.87-11.02c-0.45-1.3-0.54-2.43-0.54-2.43h-0.13c0,0-0.13,1.13-0.54,2.43l-3.92,11.02
		H194.08z"/>
	<path class="st1" d="M206.91,422.65h4.36v1.4c0,3.1,1.4,5.85,4.91,5.85c2.52,0,4.81-1.53,4.81-5.85v-18.99h-4.59v-3.46h12.64v3.46
		h-3.55v19.26c0,6.79-4.77,9.58-9.36,9.58c-4.54,0-9.22-2.61-9.22-9.4V422.65z"/>
	<path class="st1" d="M236.2,405.05h-4v-3.46h12.51v3.46h-4v16.42c0,2.07,0.41,3.87,1.21,5.17c1.3,2.07,3.78,3.24,6.84,3.24
		c3.01,0,5.54-1.17,6.84-3.33c0.76-1.3,1.21-3.06,1.21-5.13v-16.38h-4v-3.46h12.46v3.46h-3.96v16.47c0,3.02-0.81,5.76-2.21,7.74
		c-2.16,3.06-6.03,4.63-10.35,4.63c-4.5,0-8.28-1.71-10.44-4.63c-1.49-2.03-2.12-4.68-2.12-7.74V405.05z"/>
	<path class="st1" d="M269.05,429.85h3.96v-24.79h-3.96v-3.46h8.42l15.61,22.77c0.54,0.9,1.08,2.29,1.08,2.29h0.13
		c0,0-0.22-1.57-0.22-2.56v-19.03h-4.05v-3.46h12.55v3.46h-4v28.3h-4.41l-15.62-22.77c-0.58-0.9-1.08-2.29-1.08-2.29h-0.14
		c0,0,0.23,1.58,0.18,2.57v18.99h4.09v3.51h-12.55V429.85z"/>
	<path class="st1" d="M313.06,429.85h4v-24.57h-7.47v4.95h-3.92v-8.64h27.27v8.64h-3.92v-4.95h-7.47v24.57h4v3.51h-12.51V429.85z"/>
	<path class="st1" d="M332.5,429.85h3.06l10.13-28.26h5.08l10.12,28.26h3.06v3.51h-11.02v-3.51h3.38l-2.47-7.06h-11.25l-2.47,7.06
		h3.42v3.51H332.5V429.85z M352.7,419.18l-3.87-11.02c-0.45-1.3-0.54-2.43-0.54-2.43h-0.13c0,0-0.13,1.13-0.54,2.43l-3.92,11.02
		H352.7z"/>
	<path class="st1" d="M366.16,429.85h3.96l2.02-24.79h-4.05v-3.46h9l8.14,19.35c0.5,1.31,0.72,2.29,0.72,2.29h0.09
		c0,0,0.22-0.99,0.72-2.29l8.14-19.35h9v3.46h-4.05l2.03,24.79h3.96v3.51h-12.24v-3.51h3.82l-1.44-18.99
		c-0.04-0.99,0.13-2.61,0.13-2.61h-0.13c0,0-0.36,1.53-0.72,2.43l-7.29,16.69h-3.96l-7.29-16.69c-0.36-0.9-0.72-2.43-0.72-2.43
		h-0.13c0,0,0.18,1.62,0.13,2.61l-1.44,18.99h3.82v3.51h-12.24V429.85z"/>
	<path class="st1" d="M409.94,429.85h3.96v-24.79h-3.96v-3.46h22.99v7.38h-3.92v-3.69H418.4v10.21h11.25v3.69H418.4v10.49h11.38
		v-3.83h3.91v7.51h-23.76V429.85z"/>
	<path class="st1" d="M438.38,429.85h3.96v-24.79h-3.96v-3.46h8.42l15.61,22.77c0.54,0.9,1.08,2.29,1.08,2.29h0.13
		c0,0-0.22-1.57-0.22-2.56v-19.03h-4.05v-3.46h12.55v3.46h-4v28.3h-4.41l-15.61-22.77c-0.58-0.9-1.08-2.29-1.08-2.29h-0.13
		c0,0,0.22,1.58,0.18,2.57v18.99h4.09v3.51h-12.55V429.85z"/>
	<path class="st1" d="M482.39,429.85h4v-24.57h-7.47v4.95h-3.92v-8.64h27.27v8.64h-3.92v-4.95h-7.47v24.57h4v3.51h-12.51V429.85z"/>
</g>
<rect x="511.21" y="393.72" class="st3" width="48.45" height="48.45"/>
<g>
	<path class="st4" d="M535.36,438.41c-0.24-0.24-0.52-0.45-0.7-0.73c-0.93-1.47-1.84-2.96-2.75-4.45c-0.15-0.25-0.31-0.33-0.6-0.33
		c-4.12,0.01-8.24,0.01-12.35,0.01c-0.91,0-1.21-0.29-1.21-1.19c-0.02-9.86-0.04-19.72-0.05-29.58c0-0.2,0.01-0.4,0.07-0.59
		c0.13-0.41,0.55-0.67,0.96-0.62c0.43,0.06,0.76,0.38,0.81,0.81c0.02,0.17,0.01,0.35,0.01,0.52c0.02,9.43,0.04,18.87,0.05,28.3
		c0,0.15,0,0.29,0,0.49c0.18,0,0.33,0,0.48,0c3.97,0,7.94,0.01,11.91-0.01c0.53,0,0.87,0.19,1.14,0.64c0.79,1.31,1.6,2.61,2.44,3.96
		c0.09-0.15,0.17-0.27,0.24-0.39c0.7-1.23,1.4-2.45,2.1-3.68c0.21-0.37,0.52-0.57,0.95-0.52c0.38,0.04,0.67,0.25,0.75,0.62
		c0.05,0.24,0.04,0.55-0.07,0.76c-1.02,1.84-2.06,3.66-3.12,5.48c-0.11,0.19-0.33,0.33-0.5,0.49
		C535.73,438.41,535.54,438.41,535.36,438.41z"/>
	<path class="st4" d="M551.29,399.31c-0.21,0-0.39,0-0.56,0c-9.17,0-18.34,0-27.5,0c-0.15,0-0.29,0-0.44,0
		c-0.51-0.03-0.87-0.41-0.88-0.91c-0.01-0.5,0.35-0.89,0.85-0.93c0.13-0.01,0.27-0.01,0.4-0.01c9.58,0,19.16,0,28.74,0
		c0.98,0,1.27,0.29,1.27,1.25c0,10.98,0,21.96,0,32.94c0,0.94-0.3,1.24-1.24,1.24c-2.65,0-5.3,0-7.95,0c-0.69,0-1.15-0.52-1.01-1.12
		c0.1-0.45,0.47-0.72,1.01-0.72c2.28,0,4.56,0,6.84,0c0.15,0,0.29,0,0.47,0C551.29,420.47,551.29,409.92,551.29,399.31z"/>
	<path class="st4" d="M535.49,402.97c2.53,0.01,4.33,2.34,3.67,4.79c-0.92,3.39-1.87,6.77-2.81,10.15
		c-0.16,0.56-0.46,0.83-0.93,0.83c-0.48,0-0.79-0.28-0.95-0.86c-0.9-3.35-1.81-6.7-2.7-10.05
		C531.11,405.29,532.9,402.96,535.49,402.97z M535.39,414.11c0.03,0,0.06,0,0.09-0.01c0.63-2.28,1.26-4.55,1.88-6.84
		c0.23-0.84-0.09-1.64-0.77-2.11c-0.66-0.45-1.6-0.46-2.26,0c-0.69,0.47-0.99,1.29-0.77,2.15c0.17,0.66,0.35,1.31,0.52,1.97
		C534.52,410.88,534.95,412.5,535.39,414.11z"/>
	<path class="st4" d="M535.47,420.62c2.04-0.01,3.72,1.65,3.73,3.69c0.01,2.06-1.65,3.74-3.71,3.75c-2.04,0.01-3.72-1.66-3.73-3.7
		C531.75,422.3,533.41,420.62,535.47,420.62z M535.47,422.48c-1.03,0-1.85,0.83-1.86,1.85c-0.01,1.03,0.84,1.87,1.88,1.87
		c1.02-0.01,1.85-0.83,1.86-1.85C537.35,423.31,536.51,422.48,535.47,422.48z"/>
</g>
<g>
</g>
<g>
</g>
<g>
</g>
<g>
</g>
<g>
</g>
<g>
</g>
</svg>
